<?xml version="1.0" encoding="UTF-8" standalone="no"?>
<!-- Created with Inkscape (http://www.inkscape.org/) -->

<svg
   version="1.1"
   id="svg2"
   xml:space="preserve"
   width="104.52"
   height="73.080002"
   viewBox="0 0 104.52 73.080002"
   sodipodi:docname="ccnp_security_color.eps"
   xmlns:inkscape="http://www.inkscape.org/namespaces/inkscape"
   xmlns:sodipodi="http://sodipodi.sourceforge.net/DTD/sodipodi-0.dtd"
   xmlns="http://www.w3.org/2000/svg"
   xmlns:svg="http://www.w3.org/2000/svg"><defs
     id="defs6" /><sodipodi:namedview
     id="namedview4"
     pagecolor="#ffffff"
     bordercolor="#666666"
     borderopacity="1.0"
     inkscape:pageshadow="2"
     inkscape:pageopacity="0.0"
     inkscape:pagecheckerboard="0" /><g
     id="g8"
     inkscape:groupmode="layer"
     inkscape:label="ink_ext_XXXXXX"
     transform="matrix(1.3333333,0,0,-1.3333333,0,73.08)"><g
       id="g10"
       transform="scale(0.1)"><path
         d="M 601.176,196.289 H 181.738 v 8.723 h 419.438 v -8.723"
         style="fill:#918f90;fill-opacity:1;fill-rule:nonzero;stroke:none"
         id="path12" /><path
         d="M 647.465,389.707 H 135.438 v 8.731 h 512.027 v -8.731"
         style="fill:#918f90;fill-opacity:1;fill-rule:nonzero;stroke:none"
         id="path14" /><path
         d="M 110.512,122.977 C 61.7227,183.801 27.1055,263.254 14.1367,349.246 10.7461,343.801 -15.0352,307.551 12.7383,239.656 83.7539,66.0469 218.277,11.6406 275.629,0 209.867,26.9922 154.43,68.2148 110.512,122.977"
         style="fill:#c4122e;fill-opacity:1;fill-rule:nonzero;stroke:none"
         id="path16" /><path
         d="M 97.7383,229.734 C 66.3711,304.227 54.7422,385.809 63.1094,472.371 58.043,468.094 24.7617,436.711 35.25,365.535 62.3398,181.727 173.012,88.0977 224.508,58.5625 168.324,105.828 125.738,163.289 97.7383,229.734"
         style="fill:#15495d;fill-opacity:1;fill-rule:nonzero;stroke:none"
         id="path18" /><path
         d="M 131.703,530.887 C 124.184,526.336 91.168,504.637 85.1602,447.566 75.8047,312.82 125.973,226.238 159,184.93 c -28.789,48.144 -46.621,99.687 -53.105,153.633 -7.7856,64.707 0.925,129.355 25.808,192.324"
         style="fill:#918f90;fill-opacity:1;fill-rule:nonzero;stroke:none"
         id="path20" /><path
         d="m 673.336,122.977 c 48.789,60.824 83.406,140.277 96.375,226.269 3.391,-5.445 29.172,-41.695 1.398,-109.59 C 700.094,66.0469 565.57,11.6406 508.219,0 573.98,26.9922 629.418,68.2148 673.336,122.977"
         style="fill:#c4122e;fill-opacity:1;fill-rule:nonzero;stroke:none"
         id="path22" /><path
         d="m 686.109,229.734 c 31.368,74.493 42.996,156.075 34.629,242.637 5.067,-4.277 38.348,-35.66 27.86,-106.836 C 721.508,181.727 610.836,88.0977 559.34,58.5625 615.523,105.828 658.109,163.289 686.109,229.734"
         style="fill:#15495d;fill-opacity:1;fill-rule:nonzero;stroke:none"
         id="path24" /><path
         d="m 652.145,530.887 c 7.519,-4.551 40.535,-26.25 46.543,-83.321 9.355,-134.746 -40.813,-221.328 -73.84,-262.636 28.789,48.144 46.621,99.687 53.105,153.633 7.785,64.707 -0.926,129.355 -25.808,192.324"
         style="fill:#918f90;fill-opacity:1;fill-rule:nonzero;stroke:none"
         id="path26" /><path
         d="m 253.188,153.801 c -2.321,0 -6.301,0 -7.606,0 0,6.304 -4.203,10.797 -12.394,10.719 -7.102,0 -11.454,-3.18 -11.454,-7.168 0,-5.797 6.161,-7.754 13.481,-9.786 7.25,-2.031 20.293,-4.707 20.293,-16.304 0,-8.989 -7.535,-15.082 -21.887,-15.082 -11.887,0 -21.379,6.164 -21.379,18.418 0.578,0 6.883,0 7.68,0 0,-6.309 3.988,-12.618 14.859,-12.618 8.625,0 13.047,3.34 13.047,8.047 0,5.942 -6.523,8.481 -14.859,10.801 -8.262,2.246 -18.914,4.926 -18.914,16.309 0,7.035 7.031,13.183 19.203,13.183 12.972,0 19.93,-6.953 19.93,-16.519"
         style="fill:#231f20;fill-opacity:1;fill-rule:nonzero;stroke:none"
         id="path28" /><path
         d="m 265.652,117.41 v 51.762 h 32.832 v -6.234 h -25.586 v -15.731 h 23.704 v -6.238 h -23.704 v -17.317 h 26.168 v -6.242 h -33.414"
         style="fill:#231f20;fill-opacity:1;fill-rule:nonzero;stroke:none"
         id="path30" /><path
         d="m 352.348,136.914 c 0,-5.508 -4.203,-20.734 -22.032,-20.734 -15.582,0 -25.437,10.375 -25.437,27.109 0,15.805 10.07,27.109 25.437,27.109 17.758,0 21.817,-13.406 21.891,-18.261 h -7.465 c -0.293,4.855 -4.277,12.461 -14.426,12.461 -11.957,0 -17.906,-9.707 -17.906,-21.309 0,-12.32 6.528,-21.309 17.906,-21.309 10.946,0 14.352,9.493 14.641,14.934 h 7.391"
         style="fill:#231f20;fill-opacity:1;fill-rule:nonzero;stroke:none"
         id="path32" /><path
         d="m 361.059,136.848 c 0,0 0,13.394 0,32.324 h 7.246 c 0,-24.504 0,-33.344 0,-33.344 0,-9.488 5.656,-13.848 13.48,-13.848 8.27,0 13.551,4.786 13.551,13.848 0,0 0,8.399 0,33.344 h 7.258 c 0,-24.438 0,-32.324 0,-32.324 0,-9.067 -3.555,-20.668 -20.809,-20.668 -13.406,0 -20.726,7.25 -20.726,20.668"
         style="fill:#231f20;fill-opacity:1;fill-rule:nonzero;stroke:none"
         id="path34" /><path
         d="m 420.727,162.938 v -17.325 c 6.386,0 13.918,0 13.918,0 7.39,0 10.8,3.985 10.8,8.625 0,4.641 -3.332,8.7 -10.8,8.7 0,0 -9.211,0 -13.918,0 z m 13.984,-23.551 H 420.727 V 117.41 h -7.247 v 51.762 c 11.887,0 21.016,0 21.016,0 12.91,0 18.488,-6.527 18.488,-14.867 0,-10.719 -8.332,-13.043 -10.734,-13.551 0,0 0,-0.141 12.539,-23.344 h -8.555 l -11.523,21.977"
         style="fill:#231f20;fill-opacity:1;fill-rule:nonzero;stroke:none"
         id="path36" /><path
         d="m 469.301,117.41 h -7.246 v 51.762 h 7.246 V 117.41"
         style="fill:#231f20;fill-opacity:1;fill-rule:nonzero;stroke:none"
         id="path38" /><path
         d="m 519.605,169.172 v -6.234 H 502.066 V 117.41 h -7.257 v 45.528 H 477.27 v 6.234 h 42.335"
         style="fill:#231f20;fill-opacity:1;fill-rule:nonzero;stroke:none"
         id="path40" /><path
         d="m 534.242,169.172 15.43,-25.078 15.078,25.078 h 8.125 L 553.012,136.98 v -19.57 h -7.246 v 19.57 l -19.649,32.192 h 8.125"
         style="fill:#231f20;fill-opacity:1;fill-rule:nonzero;stroke:none"
         id="path42" /><path
         d="m 264.742,281.633 c 0,-12.778 -9.742,-48.047 -51.07,-48.047 -36.121,0 -58.969,24.019 -58.969,62.828 0,36.621 23.356,62.832 58.969,62.832 41.156,0 50.566,-31.07 50.738,-42.332 h -17.305 c -0.675,11.262 -9.914,28.895 -33.433,28.895 -27.719,0 -41.492,-22.52 -41.492,-49.395 0,-28.555 15.117,-49.394 41.492,-49.394 25.367,0 33.262,22.011 33.933,34.613 h 17.137"
         style="fill:#15495d;fill-opacity:1;fill-rule:nonzero;stroke:none"
         id="path44" /><path
         d="m 388.219,281.633 c 0,-12.778 -9.742,-48.047 -51.071,-48.047 -36.125,0 -58.968,24.019 -58.968,62.828 0,36.621 23.351,62.832 58.968,62.832 41.157,0 50.567,-31.07 50.739,-42.332 h -17.305 c -0.676,11.262 -9.914,28.895 -33.434,28.895 -27.718,0 -41.496,-22.52 -41.496,-49.395 0,-28.555 15.118,-49.394 41.496,-49.394 25.368,0 33.262,22.011 33.938,34.613 h 17.133"
         style="fill:#15495d;fill-opacity:1;fill-rule:nonzero;stroke:none"
         id="path46" /><path
         d="m 431.391,356.395 58.964,-98.79 h 0.508 v 98.79 h 14.953 V 236.434 H 484.984 L 423.656,337.91 h -0.332 V 236.434 h -14.949 v 119.961 h 23.016"
         style="fill:#15495d;fill-opacity:1;fill-rule:nonzero;stroke:none"
         id="path48" /><path
         d="m 551.176,341.941 v -40.156 c 12.597,0 30.234,0 30.234,0 16.973,0 24.863,9.238 24.863,20 0,10.742 -7.722,20.156 -24.863,20.156 0,0 -21.328,0 -30.234,0 z m 0,-105.507 h -16.805 v 119.961 c 25.535,0 46.531,0 46.531,0 29.903,0 42.852,-15.125 42.852,-34.442 0,-19.48 -12.949,-34.609 -42.852,-34.609 0,0 -20.996,0 -29.726,0 v -50.91"
         style="fill:#15495d;fill-opacity:1;fill-rule:nonzero;stroke:none"
         id="path50" /><path
         d="m 315.586,514.59 c 0,-5.508 -4.203,-20.735 -22.031,-20.735 -15.582,0 -25.442,10.372 -25.442,27.11 0,15.801 10.075,27.109 25.442,27.109 17.758,0 21.816,-13.406 21.89,-18.261 h -7.465 c -0.292,4.855 -4.281,12.46 -14.425,12.46 -11.957,0 -17.907,-9.707 -17.907,-21.308 0,-12.324 6.524,-21.309 17.907,-21.309 10.941,0 14.351,9.492 14.636,14.934 h 7.395"
         style="fill:#231f20;fill-opacity:1;fill-rule:nonzero;stroke:none"
         id="path52" /><path
         d="m 338.07,495.086 h -7.246 v 51.758 h 7.246 v -51.758"
         style="fill:#231f20;fill-opacity:1;fill-rule:nonzero;stroke:none"
         id="path54" /><path
         d="m 394.246,531.473 c -2.316,0 -6.301,0 -7.605,0 0,6.308 -4.203,10.8 -12.395,10.722 -7.101,0 -11.453,-3.183 -11.453,-7.168 0,-5.8 6.16,-7.754 13.48,-9.785 7.25,-2.031 20.293,-4.707 20.293,-16.308 0,-8.985 -7.535,-15.079 -21.882,-15.079 -11.891,0 -21.383,6.165 -21.383,18.418 0.582,0 6.887,0 7.679,0 0,-6.308 3.993,-12.617 14.86,-12.617 8.629,0 13.047,3.34 13.047,8.047 0,5.938 -6.524,8.477 -14.86,10.801 -8.261,2.246 -18.914,4.922 -18.914,16.309 0,7.031 7.032,13.183 19.203,13.183 12.973,0 19.93,-6.953 19.93,-16.523"
         style="fill:#231f20;fill-opacity:1;fill-rule:nonzero;stroke:none"
         id="path56" /><path
         d="m 455.648,514.59 c 0,-5.508 -4.199,-20.735 -22.031,-20.735 -15.586,0 -25.437,10.372 -25.437,27.11 0,15.801 10.066,27.109 25.437,27.109 17.754,0 21.817,-13.406 21.895,-18.261 h -7.469 c -0.293,4.855 -4.277,12.46 -14.426,12.46 -11.953,0 -17.898,-9.707 -17.898,-21.308 0,-12.324 6.511,-21.309 17.898,-21.309 10.938,0 14.356,9.492 14.641,14.934 h 7.39"
         style="fill:#231f20;fill-opacity:1;fill-rule:nonzero;stroke:none"
         id="path58" /><path
         d="m 493.434,499.656 c 12.031,0 17.898,9.864 17.898,21.309 0,11.601 -5.937,21.308 -17.898,21.308 -11.965,0 -17.903,-9.707 -17.903,-21.308 0,-12.324 6.524,-21.309 17.903,-21.309 z m -25.442,21.309 c 0,16.164 9.641,27.109 25.442,27.109 15.144,0 25.437,-10.215 25.437,-27.109 0,-17.031 -10.43,-27.11 -25.437,-27.11 -15.227,0 -25.442,10.372 -25.442,27.11"
         style="fill:#231f20;fill-opacity:1;fill-rule:nonzero;stroke:none"
         id="path60" /><path
         d="m 237.758,444.59 c 0,-5.508 -4.203,-20.735 -22.031,-20.735 -15.586,0 -25.438,10.372 -25.438,27.11 0,15.801 10.07,27.109 25.438,27.109 17.757,0 21.816,-13.406 21.89,-18.261 h -7.465 c -0.293,4.855 -4.277,12.46 -14.425,12.46 -11.957,0 -17.899,-9.707 -17.899,-21.308 0,-12.324 6.52,-21.309 17.899,-21.309 10.945,0 14.351,9.492 14.64,14.934 h 7.391"
         style="fill:#231f20;fill-opacity:1;fill-rule:nonzero;stroke:none"
         id="path62" /><path
         d="m 252.996,425.09 v 51.754 h 32.832 v -6.231 h -25.586 v -15.73 h 23.703 v -6.242 h -23.703 v -17.313 h 26.168 v -6.238 h -33.414"
         style="fill:#231f20;fill-opacity:1;fill-rule:nonzero;stroke:none"
         id="path64" /><path
         d="m 308.891,470.613 v -17.324 c 6.382,0 13.918,0 13.918,0 7.39,0 10.8,3.984 10.8,8.625 0,4.637 -3.336,8.699 -10.8,8.699 0,0 -9.204,0 -13.918,0 z m 13.992,-23.554 H 308.891 V 425.09 h -7.246 v 51.754 c 11.886,0 21.023,0 21.023,0 12.898,0 18.48,-6.524 18.48,-14.864 0,-10.722 -8.335,-13.046 -10.726,-13.554 0,0 0,-0.137 12.539,-23.336 h -8.559 l -11.519,21.969"
         style="fill:#231f20;fill-opacity:1;fill-rule:nonzero;stroke:none"
         id="path66" /><path
         d="m 393.992,476.844 v -6.231 H 376.453 V 425.09 h -7.25 v 45.523 h -17.539 v 6.231 h 42.328"
         style="fill:#231f20;fill-opacity:1;fill-rule:nonzero;stroke:none"
         id="path68" /><path
         d="m 414.301,425.09 h -7.246 v 51.754 h 7.246 V 425.09"
         style="fill:#231f20;fill-opacity:1;fill-rule:nonzero;stroke:none"
         id="path70" /><path
         d="m 438.949,470.613 v -15.73 h 22.696 v -6.242 H 438.949 V 425.09 h -7.246 v 51.754 h 32.832 v -6.231 h -25.586"
         style="fill:#231f20;fill-opacity:1;fill-rule:nonzero;stroke:none"
         id="path72" /><path
         d="m 487.016,425.09 h -7.246 v 51.754 h 7.246 V 425.09"
         style="fill:#231f20;fill-opacity:1;fill-rule:nonzero;stroke:none"
         id="path74" /><path
         d="m 504.418,425.09 v 51.754 h 32.832 v -6.231 h -25.586 v -15.73 h 23.691 v -6.242 h -23.691 v -17.313 h 26.164 v -6.238 h -33.41"
         style="fill:#231f20;fill-opacity:1;fill-rule:nonzero;stroke:none"
         id="path76" /><path
         d="m 560.309,470.613 v -39.285 h 10.945 c 12.031,0 17.902,8.192 17.902,19.637 0,11.601 -6.015,19.648 -18.195,19.648 z m 36.386,-19.648 c 0,-17.031 -10.441,-25.875 -25.441,-25.875 h -18.191 v 51.754 h 17.898 c 15.508,0 25.734,-9.063 25.734,-25.879"
         style="fill:#231f20;fill-opacity:1;fill-rule:nonzero;stroke:none"
         id="path78" /></g></g></svg>
