<?xml version="1.0" encoding="UTF-8" standalone="no"?>
<!-- Created with Inkscape (http://www.inkscape.org/) -->

<svg
   version="1.1"
   id="svg2"
   xml:space="preserve"
   width="107.69333"
   height="74.41333"
   viewBox="0 0 107.69333 74.41333"
   sodipodi:docname="ccnp_enterprise_color.eps"
   xmlns:inkscape="http://www.inkscape.org/namespaces/inkscape"
   xmlns:sodipodi="http://sodipodi.sourceforge.net/DTD/sodipodi-0.dtd"
   xmlns="http://www.w3.org/2000/svg"
   xmlns:svg="http://www.w3.org/2000/svg"><defs
     id="defs6" /><sodipodi:namedview
     id="namedview4"
     pagecolor="#ffffff"
     bordercolor="#666666"
     borderopacity="1.0"
     inkscape:pageshadow="2"
     inkscape:pageopacity="0.0"
     inkscape:pagecheckerboard="0" /><g
     id="g8"
     inkscape:groupmode="layer"
     inkscape:label="ink_ext_XXXXXX"
     transform="matrix(1.3333333,0,0,-1.3333333,0,74.413333)"><g
       id="g10"
       transform="scale(0.1)"><path
         d="M 611.246,206.309 H 191.813 v 8.722 h 419.433 v -8.722"
         style="fill:#918f90;fill-opacity:1;fill-rule:nonzero;stroke:none"
         id="path12" /><path
         d="M 657.535,399.727 H 145.523 v 8.73 h 512.012 v -8.73"
         style="fill:#918f90;fill-opacity:1;fill-rule:nonzero;stroke:none"
         id="path14" /><path
         d="M 110.516,122.98 C 61.7266,183.801 27.1055,263.254 14.1367,349.25 10.75,343.801 -15.0313,307.551 12.7422,239.66 83.7578,66.0469 218.277,11.6406 275.633,0 209.871,26.9922 154.43,68.2148 110.516,122.98"
         style="fill:#c4122e;fill-opacity:1;fill-rule:nonzero;stroke:none"
         id="path16" /><path
         d="M 97.7422,229.738 C 66.375,304.23 54.7422,385.813 63.1133,472.375 58.043,468.098 24.7617,436.711 35.25,365.539 62.3398,181.73 173.016,88.0977 224.508,58.5664 168.328,105.832 125.738,163.293 97.7422,229.738"
         style="fill:#15495d;fill-opacity:1;fill-rule:nonzero;stroke:none"
         id="path18" /><path
         d="M 131.707,530.891 C 124.188,526.34 91.168,504.641 85.1641,447.57 75.8086,312.824 125.973,226.242 159,184.934 c -28.789,48.144 -46.621,99.687 -53.105,153.632 -7.7817,64.707 0.929,129.356 25.812,192.325"
         style="fill:#918f90;fill-opacity:1;fill-rule:nonzero;stroke:none"
         id="path20" /><path
         d="m 697.195,122.98 c 48.789,60.821 83.407,140.274 96.375,226.27 3.391,-5.449 29.172,-41.699 1.399,-109.59 C 723.953,66.0469 589.43,11.6406 532.078,0 597.84,26.9922 653.277,68.2148 697.195,122.98"
         style="fill:#c4122e;fill-opacity:1;fill-rule:nonzero;stroke:none"
         id="path22" /><path
         d="m 709.969,229.738 c 31.367,74.492 42.996,156.075 34.629,242.637 5.066,-4.277 38.347,-35.664 27.859,-106.836 C 745.367,181.73 634.695,88.0977 583.199,58.5664 c 56.184,47.2656 98.77,104.7266 126.77,171.1716"
         style="fill:#15495d;fill-opacity:1;fill-rule:nonzero;stroke:none"
         id="path24" /><path
         d="m 676.004,530.891 c 7.519,-4.551 40.535,-26.25 46.543,-83.321 9.355,-134.746 -40.813,-221.328 -73.84,-262.636 28.789,48.144 46.621,99.687 53.106,153.632 7.785,64.707 -0.926,129.356 -25.809,192.325"
         style="fill:#918f90;fill-opacity:1;fill-rule:nonzero;stroke:none"
         id="path26" /><path
         d="m 274.82,291.641 c 0,-12.762 -9.734,-48.047 -51.062,-48.047 -36.133,0 -58.977,24.023 -58.977,62.832 0,36.633 23.352,62.832 58.977,62.832 41.152,0 50.566,-31.082 50.73,-42.332 h -17.304 c -0.672,11.25 -9.911,28.887 -33.426,28.887 -27.727,0 -41.504,-22.5 -41.504,-49.387 0,-28.563 15.117,-49.383 41.504,-49.383 25.359,0 33.262,22 33.926,34.598 h 17.136"
         style="fill:#15495d;fill-opacity:1;fill-rule:nonzero;stroke:none"
         id="path28" /><path
         d="m 398.297,291.641 c 0,-12.762 -9.734,-48.047 -51.063,-48.047 -36.132,0 -58.976,24.023 -58.976,62.832 0,36.633 23.351,62.832 58.976,62.832 41.153,0 50.567,-31.082 50.731,-42.332 H 380.66 c -0.672,11.25 -9.91,28.887 -33.426,28.887 -27.726,0 -41.504,-22.5 -41.504,-49.387 0,-28.563 15.118,-49.383 41.504,-49.383 25.36,0 33.262,22 33.926,34.598 h 17.137"
         style="fill:#15495d;fill-opacity:1;fill-rule:nonzero;stroke:none"
         id="path30" /><path
         d="m 441.473,366.398 58.965,-98.781 h 0.507 v 98.781 h 14.95 V 246.457 h -20.829 l -61.328,101.465 h -0.332 V 246.457 h -14.953 v 119.941 h 23.02"
         style="fill:#15495d;fill-opacity:1;fill-rule:nonzero;stroke:none"
         id="path32" /><path
         d="m 561.258,351.953 v -40.144 c 12.597,0 30.234,0 30.234,0 16.973,0 24.863,9.238 24.863,19.98 0,10.762 -7.726,20.164 -24.863,20.164 0,0 -21.328,0 -30.234,0 z m 0,-105.496 h -16.809 v 119.941 c 25.539,0 46.535,0 46.535,0 29.903,0 42.852,-15.117 42.852,-34.433 0,-19.492 -12.949,-34.61 -42.852,-34.61 0,0 -20.996,0 -29.726,0 v -50.898"
         style="fill:#15495d;fill-opacity:1;fill-rule:nonzero;stroke:none"
         id="path34" /><path
         d="m 325.672,524.602 c 0,-5.508 -4.211,-20.723 -22.031,-20.723 -15.586,0 -25.45,10.351 -25.45,27.098 0,15.8 10.079,27.109 25.45,27.109 17.754,0 21.816,-13.406 21.882,-18.27 h -7.468 c -0.293,4.864 -4.278,12.469 -14.414,12.469 -11.965,0 -17.911,-9.715 -17.911,-21.308 0,-12.313 6.524,-21.309 17.911,-21.309 10.937,0 14.343,9.504 14.629,14.934 h 7.402"
         style="fill:#231f20;fill-opacity:1;fill-rule:nonzero;stroke:none"
         id="path36" /><path
         d="m 348.152,505.109 h -7.246 v 51.739 h 7.246 v -51.739"
         style="fill:#231f20;fill-opacity:1;fill-rule:nonzero;stroke:none"
         id="path38" /><path
         d="m 404.324,541.496 c -2.316,0 -6.301,0 -7.597,0 0,6.297 -4.211,10.789 -12.403,10.723 -7.101,0 -11.445,-3.196 -11.445,-7.18 0,-5.801 6.152,-7.754 13.476,-9.785 7.247,-2.031 20.293,-4.715 20.293,-16.309 0,-8.984 -7.539,-15.066 -21.886,-15.066 -11.883,0 -21.375,6.152 -21.375,18.398 0.574,0 6.875,0 7.676,0 0,-6.3 3.984,-12.609 14.863,-12.609 8.621,0 13.047,3.332 13.047,8.047 0,5.949 -6.524,8.488 -14.864,10.801 -8.261,2.246 -18.918,4.933 -18.918,16.3 0,7.032 7.032,13.204 19.211,13.204 12.969,0 19.922,-6.965 19.922,-16.524"
         style="fill:#231f20;fill-opacity:1;fill-rule:nonzero;stroke:none"
         id="path40" /><path
         d="m 465.73,524.602 c 0,-5.508 -4.199,-20.723 -22.031,-20.723 -15.586,0 -25.441,10.351 -25.441,27.098 0,15.8 10.07,27.109 25.441,27.109 17.754,0 21.817,-13.406 21.895,-18.27 h -7.473 c -0.293,4.864 -4.277,12.469 -14.422,12.469 -11.953,0 -17.902,-9.715 -17.902,-21.308 0,-12.313 6.516,-21.309 17.902,-21.309 10.938,0 14.356,9.504 14.637,14.934 h 7.394"
         style="fill:#231f20;fill-opacity:1;fill-rule:nonzero;stroke:none"
         id="path42" /><path
         d="m 503.512,509.668 c 12.031,0 17.902,9.855 17.902,21.309 0,11.593 -5.937,21.308 -17.902,21.308 -11.961,0 -17.899,-9.715 -17.899,-21.308 0,-12.313 6.524,-21.309 17.899,-21.309 z m -25.438,21.309 c 0,16.164 9.637,27.109 25.438,27.109 15.148,0 25.441,-10.223 25.441,-27.109 0,-17.032 -10.43,-27.098 -25.441,-27.098 -15.223,0 -25.438,10.351 -25.438,27.098"
         style="fill:#231f20;fill-opacity:1;fill-rule:nonzero;stroke:none"
         id="path44" /><path
         d="m 247.84,454.602 c 0,-5.508 -4.199,-20.723 -22.031,-20.723 -15.586,0 -25.442,10.351 -25.442,27.098 0,15.8 10.071,27.109 25.442,27.109 17.754,0 21.816,-13.406 21.894,-18.27 h -7.473 c -0.292,4.864 -4.277,12.469 -14.421,12.469 -11.954,0 -17.903,-9.715 -17.903,-21.308 0,-12.313 6.516,-21.309 17.903,-21.309 10.937,0 14.355,9.504 14.636,14.934 h 7.395"
         style="fill:#231f20;fill-opacity:1;fill-rule:nonzero;stroke:none"
         id="path46" /><path
         d="m 263.074,435.109 v 51.739 h 32.832 v -6.231 H 270.32 v -15.722 h 23.711 v -6.231 H 270.32 V 441.34 h 26.172 v -6.231 h -33.418"
         style="fill:#231f20;fill-opacity:1;fill-rule:nonzero;stroke:none"
         id="path48" /><path
         d="m 318.973,480.617 v -17.324 c 6.386,0 13.914,0 13.914,0 7.394,0 10.801,3.992 10.801,8.633 0,4.637 -3.329,8.691 -10.801,8.691 0,0 -9.207,0 -13.914,0 z m 13.984,-23.554 h -13.984 v -21.954 h -7.246 v 51.739 c 11.882,0 21.015,0 21.015,0 12.91,0 18.485,-6.516 18.485,-14.856 0,-10.722 -8.329,-13.035 -10.731,-13.543 0,0 0,-0.156 12.539,-23.34 h -8.555 l -11.523,21.954"
         style="fill:#231f20;fill-opacity:1;fill-rule:nonzero;stroke:none"
         id="path50" /><path
         d="m 404.07,486.848 v -6.231 h -17.539 v -45.508 h -7.246 v 45.508 h -17.539 v 6.231 h 42.324"
         style="fill:#231f20;fill-opacity:1;fill-rule:nonzero;stroke:none"
         id="path52" /><path
         d="m 424.383,435.109 h -7.246 v 51.739 h 7.246 v -51.739"
         style="fill:#231f20;fill-opacity:1;fill-rule:nonzero;stroke:none"
         id="path54" /><path
         d="m 449.031,480.617 v -15.722 h 22.696 v -6.231 h -22.696 v -23.555 h -7.246 v 51.739 h 32.832 v -6.231 h -25.586"
         style="fill:#231f20;fill-opacity:1;fill-rule:nonzero;stroke:none"
         id="path56" /><path
         d="m 497.098,435.109 h -7.246 v 51.739 h 7.246 v -51.739"
         style="fill:#231f20;fill-opacity:1;fill-rule:nonzero;stroke:none"
         id="path58" /><path
         d="m 514.5,435.109 v 51.739 h 32.832 v -6.231 h -25.586 v -15.722 h 23.692 v -6.231 H 521.746 V 441.34 h 26.16 v -6.231 H 514.5"
         style="fill:#231f20;fill-opacity:1;fill-rule:nonzero;stroke:none"
         id="path60" /><path
         d="M 570.387,480.617 V 441.34 h 10.949 c 12.031,0 17.898,8.183 17.898,19.637 0,11.593 -6.015,19.64 -18.191,19.64 z m 36.386,-19.64 c 0,-17.032 -10.437,-25.868 -25.437,-25.868 h -18.195 v 51.739 h 17.902 c 15.508,0 25.73,-9.055 25.73,-25.871"
         style="fill:#231f20;fill-opacity:1;fill-rule:nonzero;stroke:none"
         id="path62" /><path
         d="m 233.441,140.031 h -21.464 v -16.066 h 23.421 v -5.801 H 205.09 v 48.606 h 30.308 v -5.813 h -23.421 v -15.254 h 21.464 v -5.672"
         style="fill:#231f20;fill-opacity:1;fill-rule:nonzero;stroke:none"
         id="path64" /><path
         d="m 282.918,166.77 v -48.606 h -8.711 l -23.422,40.703 v -40.703 h -6.277 v 48.606 h 9.113 l 23.152,-40.372 v 40.372 h 6.145"
         style="fill:#231f20;fill-opacity:1;fill-rule:nonzero;stroke:none"
         id="path66" /><path
         d="m 328.684,160.625 h -16.336 v -42.461 h -6.887 v 42.461 h -16.133 v 6.145 h 39.356 v -6.145"
         style="fill:#231f20;fill-opacity:1;fill-rule:nonzero;stroke:none"
         id="path68" /><path
         d="M 363.445,140.031 H 341.98 v -16.066 h 23.422 v -5.801 h -30.308 v 48.606 h 30.308 v -5.813 H 341.98 v -15.254 h 21.465 v -5.672"
         style="fill:#231f20;fill-opacity:1;fill-rule:nonzero;stroke:none"
         id="path70" /><path
         d="m 381.398,161.164 v -18.898 h 9.18 c 3.824,0 6.738,0.832 8.742,2.492 2,1.668 3,3.914 3,6.758 0,3.144 -0.965,5.535 -2.898,7.187 -1.938,1.641 -4.953,2.461 -9.047,2.461 z m 23.286,-43 -11.743,18.496 h -11.543 v -18.496 h -6.882 v 48.606 h 15.726 c 6.211,0 10.969,-1.321 14.278,-3.957 3.304,-2.625 4.96,-6.395 4.96,-11.297 0,-1.848 -0.265,-3.496 -0.777,-4.934 -0.515,-1.445 -1.23,-2.703 -2.129,-3.777 -0.898,-1.086 -1.933,-2.012 -3.105,-2.805 -1.168,-0.789 -2.426,-1.426 -3.778,-1.922 l 13.098,-19.914 h -8.105"
         style="fill:#231f20;fill-opacity:1;fill-rule:nonzero;stroke:none"
         id="path72" /><path
         d="m 426.082,161.164 v -20.051 h 8.777 c 4.317,0 7.403,0.84 9.25,2.532 1.844,1.687 2.762,4.128 2.762,7.324 0,3.242 -1.004,5.75 -3.008,7.527 -2,1.777 -4.91,2.668 -8.738,2.668 z m 8.914,5.606 c 6.164,0 10.871,-1.348 14.141,-4.024 3.261,-2.676 4.894,-6.601 4.894,-11.777 0,-4.953 -1.613,-8.762 -4.824,-11.438 -3.223,-2.683 -8.047,-4.023 -14.484,-4.023 h -8.641 v -17.344 h -6.887 v 48.606 h 15.801"
         style="fill:#231f20;fill-opacity:1;fill-rule:nonzero;stroke:none"
         id="path74" /><path
         d="m 469.352,161.164 v -18.898 h 9.179 c 3.821,0 6.739,0.832 8.742,2.492 2,1.668 2.997,3.914 2.997,6.758 0,3.144 -0.965,5.535 -2.899,7.187 -1.933,1.641 -4.953,2.461 -9.043,2.461 z m 23.281,-43 -11.738,18.496 h -11.543 v -18.496 h -6.883 v 48.606 h 15.722 c 6.211,0 10.965,-1.321 14.278,-3.957 3.308,-2.625 4.961,-6.395 4.961,-11.297 0,-1.848 -0.266,-3.496 -0.774,-4.934 -0.515,-1.445 -1.23,-2.703 -2.129,-3.777 -0.898,-1.086 -1.933,-2.012 -3.105,-2.805 -1.168,-0.789 -2.43,-1.426 -3.777,-1.922 l 13.093,-19.914 h -8.105"
         style="fill:#231f20;fill-opacity:1;fill-rule:nonzero;stroke:none"
         id="path76" /><path
         d="m 514.043,166.77 v -48.606 h -6.887 v 48.606 h 6.887"
         style="fill:#231f20;fill-opacity:1;fill-rule:nonzero;stroke:none"
         id="path78" /><path
         d="m 553.922,131.328 c 0,1.125 -0.172,2.129 -0.535,3 -0.364,0.879 -1.094,1.699 -2.199,2.469 -1.102,0.762 -2.657,1.516 -4.657,2.258 -2.004,0.742 -4.64,1.562 -7.929,2.468 -2.832,0.762 -5.196,1.594 -7.09,2.493 -1.883,0.898 -3.41,1.914 -4.551,3.035 -1.152,1.125 -1.961,2.363 -2.434,3.711 -0.468,1.359 -0.711,2.863 -0.711,4.531 0,1.75 0.391,3.391 1.153,4.922 0.761,1.535 1.894,2.863 3.379,3.984 1.484,1.125 3.3,2.004 5.457,2.637 2.168,0.625 4.64,0.937 7.433,0.937 2.606,0 5.02,-0.3 7.215,-0.906 2.207,-0.605 4.152,-1.476 5.84,-2.597 1.691,-1.125 3.066,-2.5 4.125,-4.122 1.051,-1.621 1.734,-3.468 2.059,-5.539 h -7.09 c -0.364,2.395 -1.563,4.239 -3.614,5.539 -2.05,1.309 -4.894,1.961 -8.535,1.961 -1.847,0 -3.437,-0.175 -4.765,-0.507 -1.328,-0.34 -2.414,-0.801 -3.274,-1.387 -0.847,-0.586 -1.484,-1.277 -1.883,-2.09 -0.41,-0.809 -0.617,-1.668 -0.617,-2.566 0,-0.95 0.149,-1.789 0.442,-2.532 0.293,-0.742 0.886,-1.433 1.797,-2.089 0.898,-0.653 2.175,-1.309 3.847,-1.961 1.66,-0.657 3.887,-1.36 6.68,-2.122 3.371,-0.945 6.172,-1.921 8.398,-2.937 2.235,-1.016 4.004,-2.121 5.332,-3.313 1.328,-1.191 2.266,-2.519 2.805,-3.984 0.543,-1.453 0.809,-3.133 0.809,-5.027 0,-1.887 -0.411,-3.703 -1.25,-5.43 -0.832,-1.73 -2.051,-3.273 -3.672,-4.621 -1.621,-1.355 -3.614,-2.422 -5.977,-3.211 -2.363,-0.781 -5.051,-1.184 -8.066,-1.184 -2.61,0 -5.039,0.352 -7.297,1.047 -2.246,0.703 -4.238,1.68 -5.965,2.938 -1.738,1.262 -3.164,2.793 -4.289,4.59 -1.121,1.797 -1.844,3.828 -2.156,6.074 h 7.078 c 0.414,-2.742 1.68,-4.922 3.82,-6.543 2.137,-1.621 5.028,-2.43 8.672,-2.43 2.031,0 3.797,0.223 5.332,0.672 1.531,0.449 2.801,1.067 3.816,1.856 1.008,0.793 1.778,1.691 2.297,2.707 0.516,1.004 0.77,2.097 0.77,3.269"
         style="fill:#231f20;fill-opacity:1;fill-rule:nonzero;stroke:none"
         id="path80" /><path
         d="m 597.938,140.031 h -21.465 v -16.066 h 23.418 v -5.801 h -30.305 v 48.606 h 30.305 v -5.813 h -23.418 v -15.254 h 21.465 v -5.672"
         style="fill:#231f20;fill-opacity:1;fill-rule:nonzero;stroke:none"
         id="path82" /></g></g></svg>
