<?xml version="1.0" encoding="UTF-8" standalone="no"?>
<!-- Created with Inkscape (http://www.inkscape.org/) -->

<svg
   version="1.1"
   id="svg2"
   xml:space="preserve"
   width="166.66667"
   height="133.33333"
   viewBox="0 0 166.66667 133.33333"
   sodipodi:docname="Devnet certifications_professional_RGB.eps"
   xmlns:inkscape="http://www.inkscape.org/namespaces/inkscape"
   xmlns:sodipodi="http://sodipodi.sourceforge.net/DTD/sodipodi-0.dtd"
   xmlns="http://www.w3.org/2000/svg"
   xmlns:svg="http://www.w3.org/2000/svg"><defs
     id="defs6" /><sodipodi:namedview
     id="namedview4"
     pagecolor="#ffffff"
     bordercolor="#666666"
     borderopacity="1.0"
     inkscape:pageshadow="2"
     inkscape:pageopacity="0.0"
     inkscape:pagecheckerboard="0" /><g
     id="g8"
     inkscape:groupmode="layer"
     inkscape:label="ink_ext_XXXXXX"
     transform="matrix(1.3333333,0,0,-1.3333333,0,133.33333)"><g
       id="g10"
       transform="scale(0.1)"><path
         d="m 1117.26,923.926 c 40.69,-93.438 59.93,-193.715 57.33,-292.414 -0.13,-12.332 -1.09,-24.637 -1.69,-36.926 -0.92,-12.281 -2.23,-24.535 -3.68,-36.742 -1.95,-12.164 -3.29,-24.387 -5.94,-36.399 l -3.54,-18.09 -4.27,-17.917 c -11.43,-47.762 -29.61,-93.723 -52.58,-136.848 -23.7,-42.703 -51.47,-83.285 -85.15,-118.574 C 984.555,194.328 946.203,163.691 904.777,138.379 821.996,87.4922 725.102,60.4414 628.258,60.5 531.516,59.6484 434.035,84.8125 350.871,135.285 266.938,184.43 197.465,257.578 150.285,343.238 102.688,428.895 78.3906,526.965 75.6289,625.547 71.9961,724.273 90.207,824.797 129.828,918.848 l 0.176,0.41 c 8.269,19.625 30.867,28.828 50.488,20.562 19.617,-8.261 28.828,-30.867 20.567,-50.484 -0.832,-1.981 -1.934,-4.031 -3.039,-5.789 -48.329,-75.645 -75.821,-166.035 -80.411,-258.301 -1.953,-46.152 1.465,-92.68 10.793,-138.148 9.434,-45.422 24.707,-89.735 45.282,-131.543 41.457,-83.59 106.82,-155.317 186.289,-205.266 79.894,-49.551 174.054,-74.9882 268.207,-75.0038 94.207,0.7929 187.898,27.7578 267.437,77.8168 79.016,50.804 143.443,123.382 184.173,207.336 40.61,84.027 58.74,178.054 53.49,270.414 -5.42,92.23 -33.42,182.503 -82.45,257.855 -11.37,17.473 -6.42,40.852 11.04,52.223 17.48,11.367 40.86,6.422 52.24,-11.055 1.11,-1.715 2.07,-3.496 2.88,-5.312 l 0.27,-0.637"
         style="fill:#254173;fill-opacity:1;fill-rule:nonzero;stroke:none"
         id="path12" /><path
         d="m 512.406,846.211 c 4.356,0 7.766,1.187 10.215,3.547 2.449,2.355 3.867,6.144 4.238,11.359 h 15.723 c -1.047,-8.523 -4.141,-14.949 -9.277,-19.273 -5.157,-4.328 -12.215,-6.492 -21.172,-6.492 -4.422,0 -8.516,0.718 -12.285,2.164 -3.782,1.441 -7.032,3.625 -9.754,6.527 -2.727,2.922 -4.875,6.535 -6.457,10.863 -1.551,4.328 -2.332,9.371 -2.332,15.145 0,5.582 0.742,10.508 2.215,14.808 1.464,4.301 3.566,7.879 6.296,10.766 2.727,2.887 6.036,5.059 9.934,6.535 3.895,1.473 8.281,2.207 13.125,2.207 3.855,0 7.422,-0.5 10.715,-1.515 3.277,-1.02 6.199,-2.485 8.738,-4.414 2.551,-1.934 4.656,-4.325 6.348,-7.176 1.687,-2.86 2.84,-6.157 3.457,-9.899 h -15.469 c -0.851,4.176 -2.48,7.25 -4.863,9.254 -2.403,1.988 -5.379,2.985 -8.926,2.985 -2.332,0 -4.445,-0.442 -6.309,-1.329 -1.875,-0.894 -3.496,-2.293 -4.882,-4.191 -1.379,-1.91 -2.43,-4.344 -3.164,-7.312 -0.743,-2.981 -1.114,-6.551 -1.114,-10.719 0,-4.367 0.399,-8.059 1.199,-11.102 0.793,-3.023 1.868,-5.5 3.215,-7.394 1.348,-1.907 2.95,-3.274 4.793,-4.11 1.828,-0.816 3.774,-1.234 5.793,-1.234"
         style="fill:#264173;fill-opacity:1;fill-rule:nonzero;stroke:none"
         id="path14" /><path
         d="m 566.801,836.73 h -15.469 v 66.254 h 15.469 V 836.73"
         style="fill:#264173;fill-opacity:1;fill-rule:nonzero;stroke:none"
         id="path16" /><path
         d="m 603.969,835.352 c -8.535,0 -15.246,1.89 -20.156,5.664 -4.915,3.777 -7.825,8.843 -8.743,15.226 h 14.629 c 0.5,-2.933 1.926,-5.371 4.289,-7.269 2.364,-1.91 5.742,-2.856 10.157,-2.856 4.492,0 7.664,0.688 9.531,2.067 1.875,1.382 2.812,3.238 2.812,5.574 0,1.711 -0.422,3.144 -1.242,4.281 -0.84,1.133 -1.98,2.098 -3.445,2.895 -1.485,0.796 -3.235,1.472 -5.246,2.027 -2.039,0.551 -4.246,1.102 -6.637,1.652 -2.758,0.614 -5.5,1.383 -8.188,2.301 -2.695,0.926 -5.105,2.16 -7.222,3.731 -2.113,1.558 -3.82,3.515 -5.117,5.839 -1.282,2.325 -1.926,5.246 -1.926,8.746 0,5.887 2.226,10.555 6.68,13.985 4.445,3.437 11.082,5.156 19.91,5.156 7.793,0 13.918,-1.625 18.363,-4.879 4.449,-3.254 7.105,-7.762 7.957,-13.527 H 615.93 c -0.371,2.519 -1.668,4.453 -3.907,5.801 -2.246,1.347 -5.015,2.019 -8.328,2.019 -3.925,0 -6.687,-0.609 -8.281,-1.84 -1.601,-1.226 -2.394,-2.851 -2.394,-4.879 0,-2.699 1.085,-4.636 3.273,-5.843 2.168,-1.188 5.555,-2.285 10.156,-3.262 3.192,-0.668 6.328,-1.551 9.395,-2.629 3.054,-1.074 5.793,-2.469 8.183,-4.184 2.395,-1.722 4.325,-3.855 5.801,-6.39 1.477,-2.551 2.207,-5.629 2.207,-9.254 0,-2.699 -0.539,-5.258 -1.609,-7.684 -1.078,-2.418 -2.746,-4.55 -5.012,-6.394 -2.273,-1.84 -5.195,-3.313 -8.75,-4.418 -3.555,-1.102 -7.781,-1.656 -12.695,-1.656"
         style="fill:#264173;fill-opacity:1;fill-rule:nonzero;stroke:none"
         id="path18" /><path
         d="m 668.668,846.211 c 4.352,0 7.762,1.187 10.215,3.547 2.449,2.355 3.867,6.144 4.226,11.359 h 15.743 c -1.055,-8.523 -4.153,-14.949 -9.297,-19.273 -5.157,-4.328 -12.215,-6.492 -21.172,-6.492 -4.422,0 -8.516,0.718 -12.285,2.164 -3.758,1.441 -7.032,3.625 -9.754,6.527 -2.727,2.922 -4.875,6.535 -6.438,10.863 -1.57,4.328 -2.343,9.371 -2.343,15.145 0,5.582 0.734,10.508 2.207,14.808 1.472,4.301 3.574,7.879 6.308,10.766 2.727,2.887 6.024,5.059 9.934,6.535 3.894,1.473 8.269,2.207 13.113,2.207 3.867,0 7.43,-0.5 10.715,-1.515 3.289,-1.02 6.199,-2.485 8.75,-4.414 2.547,-1.934 4.656,-4.325 6.355,-7.176 1.68,-2.86 2.821,-6.157 3.438,-9.899 h -15.457 c -0.852,4.176 -2.492,7.25 -4.875,9.254 -2.395,1.988 -5.379,2.985 -8.926,2.985 -2.332,0 -4.445,-0.442 -6.301,-1.329 -1.883,-0.894 -3.496,-2.293 -4.89,-4.191 -1.368,-1.91 -2.43,-4.344 -3.164,-7.312 -0.735,-2.981 -1.102,-6.551 -1.102,-10.719 0,-4.367 0.398,-8.059 1.187,-11.102 0.801,-3.023 1.868,-5.5 3.223,-7.394 1.352,-1.907 2.949,-3.274 4.785,-4.11 1.836,-0.816 3.774,-1.234 5.805,-1.234"
         style="fill:#264173;fill-opacity:1;fill-rule:nonzero;stroke:none"
         id="path20" /><path
         d="m 736.305,846.301 c 2.078,0 4.136,0.387 6.16,1.152 2.019,0.762 3.816,2.074 5.39,3.906 1.551,1.84 2.813,4.266 3.77,7.282 0.945,3 1.426,6.742 1.426,11.218 0,4.485 -0.496,8.239 -1.477,11.274 -0.976,3.039 -2.254,5.476 -3.824,7.312 -1.555,1.848 -3.332,3.149 -5.332,3.914 -1.992,0.774 -4.035,1.157 -6.113,1.157 -2.153,0 -4.219,-0.403 -6.211,-1.203 -1.996,-0.797 -3.774,-2.118 -5.344,-3.958 -1.562,-1.835 -2.82,-4.277 -3.777,-7.312 -0.942,-3.039 -1.418,-6.793 -1.418,-11.27 0,-4.472 0.488,-8.23 1.465,-11.226 0.988,-3.016 2.253,-5.422 3.828,-7.227 1.55,-1.808 3.359,-3.105 5.371,-3.867 2.031,-0.765 4.051,-1.152 6.086,-1.152 m 0,-10.953 c -4.055,0 -8.032,0.586 -11.926,1.75 -3.899,1.172 -7.363,3.101 -10.402,5.804 -3.028,2.696 -5.465,6.239 -7.313,10.625 -1.836,4.383 -2.754,9.793 -2.754,16.246 0,6.317 0.918,11.665 2.754,16.051 1.848,4.387 4.285,7.965 7.313,10.731 3.039,2.758 6.503,4.742 10.402,5.98 3.894,1.223 7.871,1.832 11.926,1.832 4.043,0 8.015,-0.597 11.914,-1.793 3.906,-1.195 7.359,-3.144 10.398,-5.844 3.028,-2.695 5.469,-6.242 7.313,-10.625 1.836,-4.394 2.765,-9.796 2.765,-16.246 0,-6.308 -0.937,-11.675 -2.812,-16.062 -1.867,-4.387 -4.317,-7.942 -7.363,-10.664 -3.04,-2.731 -6.485,-4.715 -10.352,-5.945 -3.859,-1.219 -7.82,-1.84 -11.863,-1.84"
         style="fill:#264173;fill-opacity:1;fill-rule:nonzero;stroke:none"
         id="path22" /><path
         d="m 429.68,737.457 c 4.355,0 7.765,1.188 10.207,3.547 2.461,2.355 3.879,6.144 4.25,11.359 h 15.718 c -1.042,-8.523 -4.136,-14.949 -9.285,-19.277 -5.156,-4.32 -12.207,-6.488 -21.172,-6.488 -4.414,0 -8.515,0.718 -12.277,2.168 -3.777,1.433 -7.027,3.617 -9.754,6.523 -2.734,2.922 -4.883,6.531 -6.457,10.863 -1.551,4.328 -2.332,9.371 -2.332,15.149 0,5.574 0.731,10.504 2.219,14.804 1.465,4.301 3.562,7.879 6.297,10.766 2.722,2.887 6.023,5.063 9.929,6.535 3.899,1.473 8.274,2.207 13.118,2.207 3.867,0 7.429,-0.5 10.722,-1.515 3.282,-1.02 6.192,-2.481 8.739,-4.414 2.539,-1.934 4.66,-4.325 6.347,-7.176 1.684,-2.86 2.844,-6.16 3.449,-9.899 h -15.46 c -0.848,4.172 -2.477,7.25 -4.872,9.254 -2.39,1.992 -5.371,2.981 -8.925,2.981 -2.336,0 -4.434,-0.438 -6.297,-1.328 -1.875,-0.895 -3.508,-2.289 -4.883,-4.188 -1.379,-1.91 -2.434,-4.348 -3.176,-7.316 -0.742,-2.977 -1.105,-6.547 -1.105,-10.711 0,-4.371 0.402,-8.059 1.203,-11.106 0.781,-3.027 1.863,-5.5 3.215,-7.394 1.343,-1.906 2.949,-3.27 4.793,-4.11 1.828,-0.82 3.757,-1.234 5.789,-1.234"
         style="fill:#264173;fill-opacity:1;fill-rule:nonzero;stroke:none"
         id="path24" /><path
         d="m 510.656,756.051 h -26.601 v -16.934 h 29.269 V 727.98 h -44.719 v 66.25 h 44.719 v -11.308 h -29.269 v -16.207 h 26.601 v -10.664"
         style="fill:#264173;fill-opacity:1;fill-rule:nonzero;stroke:none"
         id="path26" /><path
         d="m 535.688,783.555 v -20.703 h 9.66 c 3.308,0 6.035,0.894 8.152,2.675 2.109,1.774 3.164,4.352 3.164,7.731 0,3.613 -0.996,6.238 -2.988,7.867 -1.992,1.621 -4.953,2.43 -8.875,2.43 z m 23.105,-55.578 -14.641,24.203 h -8.464 v -24.203 h -15.461 v 66.253 h 24.386 c 9.325,0 16.336,-1.785 21.028,-5.328 4.695,-3.562 7.039,-8.773 7.039,-15.644 0,-4.602 -1.075,-8.406 -3.223,-11.422 -2.148,-3 -5.449,-5.324 -9.934,-6.992 l 17.571,-26.867 h -18.301"
         style="fill:#264173;fill-opacity:1;fill-rule:nonzero;stroke:none"
         id="path28" /><path
         d="M 630.746,782.645 H 611.059 V 727.98 h -15.461 v 54.665 h -19.422 v 11.589 h 54.57 v -11.589"
         style="fill:#264173;fill-opacity:1;fill-rule:nonzero;stroke:none"
         id="path30" /><path
         d="M 652.191,727.977 H 636.73 v 66.253 h 15.461 v -66.253"
         style="fill:#264173;fill-opacity:1;fill-rule:nonzero;stroke:none"
         id="path32" /><path
         d="M 702.426,754.758 H 678.684 V 727.98 h -15.457 v 66.254 h 42.058 v -11.132 h -26.601 v -17.676 h 23.742 v -10.668"
         style="fill:#264173;fill-opacity:1;fill-rule:nonzero;stroke:none"
         id="path34" /><path
         d="m 729.027,727.977 h -15.461 v 66.253 h 15.461 v -66.253"
         style="fill:#264173;fill-opacity:1;fill-rule:nonzero;stroke:none"
         id="path36" /><path
         d="m 782.125,756.051 h -26.594 v -16.934 h 29.258 V 727.98 h -44.707 v 66.25 h 44.707 v -11.308 h -29.258 v -16.207 h 26.594 v -10.664"
         style="fill:#264173;fill-opacity:1;fill-rule:nonzero;stroke:none"
         id="path38" /><path
         d="M 809,783.555 V 738.75 h 9.566 c 2.629,0 5.024,0.418 7.18,1.289 2.149,0.852 3.965,2.188 5.469,3.996 1.504,1.813 2.656,4.137 3.457,6.949 0.793,2.817 1.191,6.196 1.191,10.121 0,7.793 -1.582,13.485 -4.734,17.075 -3.164,3.586 -7.414,5.375 -12.746,5.375 z m 9.383,10.675 c 10.73,0 18.926,-2.691 24.57,-8.085 5.645,-5.407 8.469,-13.747 8.469,-25.04 0,-5.828 -0.742,-10.828 -2.219,-15 -1.465,-4.175 -3.613,-7.589 -6.437,-10.257 -2.832,-2.668 -6.278,-4.653 -10.348,-5.934 -4.074,-1.285 -8.703,-1.937 -13.852,-1.937 h -25.039 v 66.253 h 24.856"
         style="fill:#264173;fill-opacity:1;fill-rule:nonzero;stroke:none"
         id="path40" /><path
         d="m 246.43,478.672 h 27.773 c 17.324,0 30.281,5.57 38.856,16.715 7.824,10.082 11.75,24.312 11.75,42.691 0,21.235 -5.196,36.969 -15.586,47.207 -8.582,8.434 -20.41,12.653 -35.457,12.653 H 246.43 Z m -28.907,140.723 h 56.016 c 27.402,0 47.957,-7.528 61.66,-22.586 12.489,-13.711 18.75,-33.282 18.75,-58.731 0,-28.312 -8.351,-49.543 -25.066,-63.695 -14.016,-11.746 -32.688,-17.617 -56.028,-17.617 h -55.332 v 162.629"
         style="fill:#51c3ec;fill-opacity:1;fill-rule:nonzero;stroke:none"
         id="path42" /><path
         d="m 471.848,550.051 v -21.91 h -69.344 v -48.789 h 75.898 V 456.766 H 373.598 v 162.629 h 104.804 v -22.813 h -75.898 v -46.531 h 69.344"
         style="fill:#51c3ec;fill-opacity:1;fill-rule:nonzero;stroke:none"
         id="path44" /><path
         d="m 557.23,481.609 44.727,137.786 h 28.242 L 574.398,456.758 H 538.93 l -56.242,162.637 h 30.265 L 557.23,481.609"
         style="fill:#51c3ec;fill-opacity:1;fill-rule:nonzero;stroke:none"
         id="path46" /><path
         d="m 675.141,619.395 71.152,-125.594 v 125.594 h 25.293 V 456.766 H 738.383 L 665.648,584.609 V 456.766 h -25.527 v 162.629 h 35.02"
         style="fill:#51c3ec;fill-opacity:1;fill-rule:nonzero;stroke:none"
         id="path48" /><path
         d="m 895.363,550.051 v -21.91 H 826.02 v -48.789 h 75.898 V 456.766 H 797.102 V 619.395 H 901.918 V 596.582 H 826.02 v -46.531 h 69.343"
         style="fill:#51c3ec;fill-opacity:1;fill-rule:nonzero;stroke:none"
         id="path50" /><path
         d="M 1046.24,619.395 V 595.68 H 994.074 V 456.766 H 965.16 V 595.68 h -51.504 v 23.715 h 132.584"
         style="fill:#51c3ec;fill-opacity:1;fill-rule:nonzero;stroke:none"
         id="path52" /><path
         d="m 312.758,333.75 h 13.816 c 12.422,0 18.625,5.359 18.625,16.047 0,5.769 -1.797,10.07 -5.39,12.887 -3.196,2.414 -7.618,3.636 -13.235,3.636 h -13.816 z m -14.992,43.805 h 28.578 c 22.957,0 34.429,-9.254 34.429,-27.758 0,-18.195 -11.472,-27.289 -34.429,-27.289 H 312.758 V 293.23 h -14.992 v 84.325"
         style="fill:#264173;fill-opacity:1;fill-rule:nonzero;stroke:none"
         id="path54" /><path
         d="M 407.277,355.066 V 341.48 c -2.586,0.786 -5.047,1.18 -7.39,1.18 -4.367,0 -7.879,-1.922 -10.539,-5.746 -2.489,-3.668 -3.739,-8.742 -3.739,-15.219 V 293.23 h -14.062 v 60.907 h 11.594 L 384.906,345 c 3.43,7.258 8.621,10.895 15.574,10.895 2.493,0 4.758,-0.282 6.797,-0.829"
         style="fill:#264173;fill-opacity:1;fill-rule:nonzero;stroke:none"
         id="path56" /><path
         d="m 440.773,301.902 c 5.54,0 9.68,2.02 12.415,6.086 2.578,3.664 3.859,8.942 3.859,15.813 0,7.801 -1.723,13.543 -5.149,17.215 -2.734,2.961 -6.484,4.449 -11.242,4.449 -5.476,0 -9.605,-1.988 -12.422,-5.973 -2.644,-3.672 -3.98,-8.898 -3.98,-15.691 0,-7.731 1.707,-13.469 5.152,-17.219 2.895,-3.117 6.672,-4.68 11.367,-4.68 m -31.043,21.899 c 0,11.082 3.282,19.476 9.844,25.179 5.379,4.61 12.403,6.911 21.082,6.911 10.063,0 17.832,-3.043 23.293,-9.137 5.086,-5.547 7.625,-13.199 7.625,-22.953 0,-11.094 -3.203,-19.485 -9.617,-25.192 -5.371,-4.761 -12.48,-7.132 -21.301,-7.132 -10,0 -17.769,3.121 -23.316,9.371 -5.07,5.691 -7.61,13.347 -7.61,22.953"
         style="fill:#264173;fill-opacity:1;fill-rule:nonzero;stroke:none"
         id="path58" /><path
         d="m 516.078,377.672 v -11 c -3.816,1.012 -6.863,1.512 -9.133,1.512 -4.539,0 -6.797,-2.149 -6.797,-6.43 v -7.617 h 13.235 V 343.355 H 500.148 V 293.23 h -14.05 v 50.125 h -9.141 v 10.782 h 9.141 v 6.914 c 0,6.078 1.875,10.765 5.617,14.043 3.269,2.812 7.578,4.219 12.887,4.219 3.429,0 7.257,-0.547 11.476,-1.641"
         style="fill:#264173;fill-opacity:1;fill-rule:nonzero;stroke:none"
         id="path60" /><path
         d="m 563.977,330.012 c -0.321,5.699 -2.032,9.871 -5.157,12.523 -2.578,2.278 -5.925,3.395 -10.066,3.395 -4.531,0 -8.164,-1.469 -10.899,-4.45 -2.5,-2.652 -4.089,-6.472 -4.796,-11.468 z m -1.051,-19.219 h 14.754 c -1.641,-6.242 -5.039,-11.086 -10.188,-14.512 -4.922,-3.203 -10.976,-4.804 -18.152,-4.804 -9.922,0 -17.649,3.121 -23.195,9.371 -5.079,5.687 -7.618,13.3 -7.618,22.832 0,10.929 3.164,19.289 9.493,25.062 5.316,4.77 12.226,7.153 20.734,7.153 9.914,0 17.414,-3.247 22.48,-9.723 4.766,-6.016 7.149,-14.598 7.149,-25.766 h -45.559 c 0.539,-6.566 2.578,-11.367 6.086,-14.402 2.813,-2.508 6.477,-3.75 11.008,-3.75 3.199,0 5.973,0.769 8.309,2.344 2.351,1.55 3.906,3.625 4.699,6.195"
         style="fill:#264173;fill-opacity:1;fill-rule:nonzero;stroke:none"
         id="path62" /><path
         d="m 599.34,310.566 c 1.101,-5.851 5.508,-8.785 13.242,-8.785 4.297,0 7.527,0.824 9.719,2.461 1.797,1.403 2.691,3.238 2.691,5.496 0,2.895 -1.551,5.043 -4.687,6.45 -1.793,0.781 -5.731,1.875 -11.825,3.273 -7.5,1.723 -12.839,4.066 -16.046,7.023 -3.204,2.899 -4.793,6.688 -4.793,11.375 0,5.926 2.422,10.496 7.265,13.692 4.278,2.894 10.188,4.344 17.676,4.344 7.723,0 13.934,-1.84 18.621,-5.508 4.055,-3.121 6.594,-7.332 7.617,-12.649 h -14.285 c -1.183,5.231 -5.234,7.848 -12.18,7.848 -7.031,0 -10.546,-2.152 -10.546,-6.445 0,-2.188 0.89,-3.828 2.687,-4.914 1.797,-1.094 5.43,-2.301 10.899,-3.629 8.425,-1.957 14.296,-4.153 17.57,-6.567 4.129,-3.039 6.211,-7.34 6.211,-12.886 0,-6.325 -2.59,-11.278 -7.738,-14.864 -4.684,-3.207 -11.004,-4.804 -18.973,-4.804 -8.36,0 -15.039,1.992 -20.031,5.972 -4.215,3.352 -6.668,7.723 -7.371,13.117 h 14.277"
         style="fill:#264173;fill-opacity:1;fill-rule:nonzero;stroke:none"
         id="path64" /><path
         d="m 659.191,310.566 c 1.094,-5.851 5.508,-8.785 13.235,-8.785 4.304,0 7.527,0.824 9.726,2.461 1.797,1.403 2.696,3.238 2.696,5.496 0,2.895 -1.575,5.043 -4.688,6.45 -1.797,0.781 -5.742,1.875 -11.824,3.273 -7.5,1.723 -12.844,4.066 -16.047,7.023 -3.215,2.899 -4.805,6.688 -4.805,11.375 0,5.926 2.422,10.496 7.266,13.692 4.285,2.894 10.184,4.344 17.676,4.344 7.734,0 13.945,-1.84 18.633,-5.508 4.05,-3.121 6.589,-7.332 7.617,-12.649 h -14.297 c -1.172,5.231 -5.234,7.848 -12.18,7.848 -7.027,0 -10.547,-2.152 -10.547,-6.445 0,-2.188 0.903,-3.828 2.696,-4.914 1.797,-1.094 5.429,-2.301 10.89,-3.629 8.438,-1.957 14.285,-4.153 17.567,-6.567 4.14,-3.039 6.211,-7.34 6.211,-12.886 0,-6.325 -2.578,-11.278 -7.735,-14.864 -4.683,-3.207 -10.996,-4.804 -18.972,-4.804 -8.348,0 -15.032,1.992 -20.02,5.972 -4.219,3.352 -6.68,7.723 -7.383,13.117 h 14.285"
         style="fill:#264173;fill-opacity:1;fill-rule:nonzero;stroke:none"
         id="path66" /><path
         d="m 723.852,293.234 h -14.051 v 60.903 h 14.051 z m 0.703,70.145 h -15.457 v 14.172 h 15.457 v -14.172"
         style="fill:#264173;fill-opacity:1;fill-rule:nonzero;stroke:none"
         id="path68" /><path
         d="m 765.656,301.902 c 5.547,0 9.68,2.02 12.414,6.086 2.578,3.664 3.868,8.942 3.868,15.813 0,7.801 -1.719,13.543 -5.157,17.215 -2.734,2.961 -6.476,4.449 -11.238,4.449 -5.473,0 -9.602,-1.988 -12.426,-5.973 -2.644,-3.672 -3.98,-8.898 -3.98,-15.691 0,-7.731 1.715,-13.469 5.164,-17.219 2.879,-3.117 6.672,-4.68 11.355,-4.68 m -31.043,21.899 c 0,11.082 3.289,19.476 9.844,25.179 5.391,4.61 12.41,6.911 21.086,6.911 10.066,0 17.84,-3.043 23.301,-9.137 5.078,-5.547 7.625,-13.199 7.625,-22.953 0,-11.094 -3.211,-19.485 -9.621,-25.192 -5.371,-4.761 -12.489,-7.132 -21.305,-7.132 -9.992,0 -17.777,3.121 -23.313,9.371 -5.07,5.691 -7.617,13.347 -7.617,22.953"
         style="fill:#264173;fill-opacity:1;fill-rule:nonzero;stroke:none"
         id="path70" /><path
         d="M 821.293,293.23 H 807.23 v 60.903 h 11.602 l 1.523,-7.262 c 4.446,6.016 10.618,9.02 18.504,9.02 7.344,0 12.95,-2.266 16.868,-6.793 3.425,-3.985 5.136,-9.414 5.136,-16.278 V 293.23 H 846.82 v 39.239 c 0,8.347 -3.867,12.527 -11.593,12.527 -4.215,0 -7.657,-1.48 -10.309,-4.449 -2.414,-2.734 -3.625,-6.164 -3.625,-10.309 V 293.23"
         style="fill:#264173;fill-opacity:1;fill-rule:nonzero;stroke:none"
         id="path72" /><path
         d="m 911.477,322.977 -13.243,-2.336 c -4.531,-0.868 -7.769,-2.047 -9.714,-3.578 -1.965,-1.524 -2.93,-3.657 -2.93,-6.383 0,-5.7 3.465,-8.539 10.422,-8.539 4.531,0 8.347,1.476 11.472,4.437 2.657,2.59 3.993,5.59 3.993,9.02 z m -24.598,13.937 h -14.641 c 1.008,6.324 4.172,11.168 9.477,14.524 4.773,2.968 10.738,4.457 17.926,4.457 8.664,0 15.304,-2.231 19.914,-6.676 3.972,-3.832 5.976,-8.793 5.976,-14.883 V 293.23 h -11.25 l -1.758,7.504 c -4.757,-6.175 -11.511,-9.261 -20.261,-9.261 -6.946,0 -12.336,1.875 -16.164,5.617 -3.36,3.281 -5.032,7.469 -5.032,12.535 0,5.703 2.075,10.148 6.211,13.352 3.735,2.961 9.563,5.109 17.446,6.449 l 16.754,2.801 v 2.929 c 0,3.672 -1.219,6.407 -3.641,8.207 -2.109,1.645 -4.988,2.453 -8.672,2.453 -7.246,0 -11.348,-2.964 -12.285,-8.902"
         style="fill:#264173;fill-opacity:1;fill-rule:nonzero;stroke:none"
         id="path74" /><path
         d="m 952.805,293.234 h -14.051 v 84.325 h 14.051 v -84.325"
         style="fill:#264173;fill-opacity:1;fill-rule:nonzero;stroke:none"
         id="path76" /><path
         d="M 1239.46,628.363 C 1222.64,468.848 1146.6,324.406 1033.64,224.82 977.328,174.895 912.57,135.453 843.051,109.043 808.305,95.8867 772.492,85.582 735.973,79.0977 699.547,72.3203 662.484,68.918 625.441,69.0977 588.41,68.9063 551.359,72.3125 514.918,79.0898 478.391,85.5586 442.594,95.8555 407.816,109.004 338.285,135.391 273.5,174.785 217.133,224.68 104.035,324.215 27.7461,468.613 10.5586,628.363 l -0.125,1.223 c -2.50001,23.184 14.2773,43.988 37.4492,46.488 23.1836,2.496 43.9961,-14.281 46.4844,-37.457 0.3711,-3.418 0.2851,-6.988 -0.1445,-10.254 -4.6993,-34.222 -4.5625,-69.226 -0.7735,-104.133 3.711,-34.949 11.8478,-69.64 23.5078,-103.359 23.516,-67.394 62.246,-130.504 112.664,-183.254 50.266,-52.894 112.004,-95.558 179.848,-124.539 33.902,-14.5663 69.453,-25.3475 105.652,-32.91 36.277,-7.2969 73.301,-10.8867 110.32,-11.0703 37.032,0.1836 74.055,3.7734 110.332,11.0625 36.204,7.5546 71.75,18.3281 105.676,32.8788 67.86,28.949 129.617,71.574 179.961,124.438 50.47,52.718 89.29,115.804 112.93,183.218 11.73,33.719 19.93,68.434 23.72,103.407 3.86,34.929 4.08,69.98 -0.52,104.261 -3.03,22.625 12.84,43.41 35.45,46.45 22.62,3.035 43.42,-12.833 46.45,-35.461 0.45,-3.258 0.49,-6.481 0.17,-9.614 l -0.15,-1.375"
         style="fill:#51c3ec;fill-opacity:1;fill-rule:nonzero;stroke:none"
         id="path78" /><path
         d="M 1225.29,391.031 C 1159.95,285.504 1068.04,203.359 964.691,145.313 912.68,116.805 858.09,93.1602 801.051,77.6992 744.262,61.7031 685.375,52.4883 626.223,52.9805 567.121,52.6523 508.285,61.6367 451.371,77.1055 394.242,92.1211 339.391,115.059 287.035,142.969 183.012,199.734 89.9336,281.027 24.6719,386.996 l -0.2735,0.445 c -9.7382,15.817 -4.8164,36.536 10.9961,46.27 15.8086,9.738 36.5313,4.812 46.2578,-11 1.0665,-1.715 2.004,-3.668 2.7266,-5.473 19.7661,-50.988 50.6371,-98.222 87.6681,-140.375 37.43,-41.871 81.305,-78.699 129.644,-108.761 48.071,-30.622 100.872,-53.809 155.469,-70.8247 54.778,-16.5078 111.914,-25.4023 169.094,-26 57.148,0.3165 114.226,9.5938 168.887,26.4336 54.422,17.4841 106.961,41.2501 154.66,72.4571 47.976,30.656 91.419,67.992 128.549,110.199 36.69,42.516 67.39,89.934 87.28,141.012 6.75,17.305 26.25,25.867 43.54,19.125 17.31,-6.742 25.87,-26.234 19.12,-43.535 -0.73,-1.891 -1.62,-3.672 -2.63,-5.348 l -0.37,-0.59"
         style="fill:#264173;fill-opacity:1;fill-rule:nonzero;stroke:none"
         id="path80" /></g></g></svg>
