<?xml version="1.0" encoding="UTF-8" standalone="no"?>
<!-- Created with Inkscape (http://www.inkscape.org/) -->

<svg
   version="1.1"
   id="svg2"
   xml:space="preserve"
   width="431.77332"
   height="196.98666"
   viewBox="0 0 431.77332 196.98666"
   sodipodi:docname="DevNet500_01.eps"
   xmlns:inkscape="http://www.inkscape.org/namespaces/inkscape"
   xmlns:sodipodi="http://sodipodi.sourceforge.net/DTD/sodipodi-0.dtd"
   xmlns="http://www.w3.org/2000/svg"
   xmlns:svg="http://www.w3.org/2000/svg"><defs
     id="defs6" /><sodipodi:namedview
     id="namedview4"
     pagecolor="#ffffff"
     bordercolor="#666666"
     borderopacity="1.0"
     inkscape:pageshadow="2"
     inkscape:pageopacity="0.0"
     inkscape:pagecheckerboard="0" /><g
     id="g8"
     inkscape:groupmode="layer"
     inkscape:label="ink_ext_XXXXXX"
     transform="matrix(1.3333333,0,0,-1.3333333,0,196.98667)"><g
       id="g10"
       transform="scale(0.1)"><path
         d="m 1393.08,1391.23 h -44.82 c -2.78,17.61 -10.43,31.05 -22.93,40.32 -10.9,7.87 -24.22,11.82 -39.97,11.82 -23.87,0 -42.05,-8.93 -54.57,-26.76 -11.81,-16.46 -17.72,-39.51 -17.72,-69.16 0,-33.59 7.53,-58.85 22.6,-75.76 12.03,-13.67 27.91,-20.51 47.6,-20.51 20.16,0 36.26,6.14 48.31,18.42 10.43,10.66 16.22,24.68 17.37,42.05 h 45.18 c -2.55,-29.88 -14.94,-53.63 -37.18,-71.24 -19.93,-15.75 -44.72,-23.62 -74.37,-23.62 -37.53,0 -66.61,12.61 -87.23,37.88 -18.76,22.93 -28.15,53.85 -28.15,92.78 0,44.24 12.28,77.85 36.85,100.78 20.61,19.47 47.72,29.19 81.31,29.19 31.5,0 57.45,-9.15 77.85,-27.46 17.37,-15.52 27.33,-35.09 29.87,-58.73"
         style="fill:#50c3ee;fill-opacity:1;fill-rule:nonzero;stroke:none"
         id="path12" /><path
         d="m 1471.28,1222 h -41.7 v 180.7 h 41.7 z m 2.08,208.16 h -45.87 v 42.05 h 45.87 v -42.05"
         style="fill:#50c3ee;fill-opacity:1;fill-rule:nonzero;stroke:none"
         id="path14" /><path
         d="m 1545.64,1273.43 c 3.24,-17.38 16.34,-26.07 39.28,-26.07 12.73,0 22.34,2.44 28.84,7.31 5.32,4.16 7.99,9.6 7.99,16.33 0,8.57 -4.64,14.94 -13.9,19.11 -5.34,2.32 -17.03,5.56 -35.1,9.73 -22.24,5.09 -38.11,12.04 -47.61,20.85 -9.5,8.57 -14.25,19.81 -14.25,33.71 0,17.6 7.18,31.16 21.54,40.66 12.75,8.57 30.24,12.86 52.49,12.86 22.93,0 41.35,-5.45 55.24,-16.34 12.06,-9.26 19.58,-21.77 22.59,-37.53 h -42.39 c -3.47,15.52 -15.53,23.29 -36.14,23.29 -20.85,0 -31.28,-6.38 -31.28,-19.11 0,-6.5 2.66,-11.36 8,-14.6 5.32,-3.25 16.09,-6.84 32.32,-10.78 25.01,-5.79 42.39,-12.28 52.12,-19.45 12.27,-9.04 18.42,-21.79 18.42,-38.24 0,-18.76 -7.65,-33.47 -22.93,-44.13 -13.91,-9.5 -32.67,-14.24 -56.3,-14.24 -24.8,0 -44.61,5.9 -59.43,17.71 -12.51,9.96 -19.8,22.95 -21.89,38.93 h 42.39"
         style="fill:#50c3ee;fill-opacity:1;fill-rule:nonzero;stroke:none"
         id="path16" /><path
         d="m 1817.4,1280.73 h 44.48 c -3.47,-20.16 -13.08,-36.03 -28.84,-47.61 -14.83,-10.89 -33.14,-16.33 -54.91,-16.33 -28.73,0 -50.97,9.15 -66.73,27.45 -14.13,16.45 -21.19,38.57 -21.19,66.37 0,32.44 9.04,57.34 27.1,74.72 15.75,15.05 36.15,22.59 61.17,22.59 23.39,0 42.75,-6.03 58.03,-18.07 13.44,-10.66 21.66,-24.45 24.68,-41.36 h -45.18 c -2.08,8.56 -6.37,15.34 -12.86,20.33 -6.49,4.98 -14.36,7.47 -23.63,7.47 -15.07,0 -26.52,-6.03 -34.4,-18.06 -7.43,-11.36 -11.12,-27.58 -11.12,-48.66 0,-21.32 4.97,-37.42 14.94,-48.31 7.87,-8.57 17.84,-12.85 29.89,-12.85 10.19,0 18.59,2.77 25.19,8.34 6.6,5.56 11.06,13.55 13.38,23.98"
         style="fill:#50c3ee;fill-opacity:1;fill-rule:nonzero;stroke:none"
         id="path18" /><path
         d="m 1979.69,1247.71 c 16.44,0 28.72,6.02 36.83,18.08 7.65,10.88 11.47,26.52 11.47,46.91 0,23.16 -5.1,40.19 -15.3,51.08 -8.1,8.81 -19.22,13.21 -33.35,13.21 -16.22,0 -28.5,-5.91 -36.84,-17.73 -7.88,-10.89 -11.82,-26.41 -11.82,-46.56 0,-22.93 5.1,-39.97 15.29,-51.09 8.57,-9.26 19.82,-13.9 33.72,-13.9 z m -92.09,64.99 c 0,32.89 9.72,57.8 29.19,74.71 15.98,13.67 36.83,20.51 62.55,20.51 29.88,0 52.93,-9.03 69.15,-27.11 15.06,-16.45 22.59,-39.16 22.59,-68.11 0,-32.91 -9.5,-57.81 -28.49,-74.72 -15.99,-14.13 -37.07,-21.19 -63.25,-21.19 -29.66,0 -52.71,9.26 -69.16,27.8 -15.06,16.9 -22.58,39.61 -22.58,68.11"
         style="fill:#50c3ee;fill-opacity:1;fill-rule:nonzero;stroke:none"
         id="path20" /><path
         d="M 1465.75,1127 1339.25,789.516 1213.14,1127 H 1061.6 L 1339.24,459.93 1616.9,1127 h -151.15"
         style="fill:#254172;fill-opacity:1;fill-rule:nonzero;stroke:none"
         id="path22" /><path
         d="M 236.801,1024.86 H 147.344 V 597.746 h 91.211 c 109.914,0 164.886,71.035 164.886,213.117 0,77.176 -16.968,133.598 -50.871,169.274 -28.066,29.813 -66.652,44.723 -115.769,44.723 z M 0,1126.6 h 236.801 c 209.902,0 314.855,-105.24 314.855,-315.737 0,-210.488 -104.363,-315.734 -313.101,-315.734 L 0,495.129 V 1126.6"
         style="fill:#254172;fill-opacity:1;fill-rule:nonzero;stroke:none"
         id="path24" /><path
         d="M 1010.17,864.359 V 762.621 H 756.699 V 601.254 H 1035.6 V 495.129 H 609.359 V 1126.6 H 1035.6 V 1018.72 H 756.699 V 864.359 h 253.471"
         style="fill:#254172;fill-opacity:1;fill-rule:nonzero;stroke:none"
         id="path26" /><path
         d="m 2050.82,1126.6 h 125.41 V 495.129 H 2024.5 L 1775.43,943.293 V 495.129 h -126.3 V 1126.6 h 163.13 l 238.56,-431.51 v 431.51"
         style="fill:#254172;fill-opacity:1;fill-rule:nonzero;stroke:none"
         id="path28" /><path
         d="M 2647.2,864.359 V 762.621 H 2393.73 V 601.254 h 278.9 V 495.129 H 2246.39 V 1126.6 h 426.24 v -107.88 h -278.9 V 864.359 h 253.47"
         style="fill:#254172;fill-opacity:1;fill-rule:nonzero;stroke:none"
         id="path30" /><path
         d="M 3238.34,1126.6 V 1016.09 H 3050.65 V 495.129 h -147.34 v 520.961 h -185.06 v 110.51 h 520.09"
         style="fill:#254172;fill-opacity:1;fill-rule:nonzero;stroke:none"
         id="path32" /><path
         d="m 1181.23,96.5391 h 62.31 c 3.4,-16.0196 11.23,-28.2774 23.5,-36.7774 11.23,-7.832 25.02,-11.75 41.37,-11.75 21.45,0 38.31,7.4883 50.56,22.4688 11.58,13.9687 17.37,32.3595 17.37,55.1675 0,26.223 -6.99,45.961 -20.94,59.25 -11.58,10.891 -27.25,16.34 -46.99,16.34 -24.87,0 -45.46,-9.367 -61.81,-28.09 h -51.58 l 8.68,192.051 h 217.07 v -47.5 h -161.9 l -4.6,-95.008 c 20.43,14.981 44.09,22.481 70.99,22.481 35.41,0 63.67,-11.582 84.79,-34.742 19.74,-21.45 29.63,-49.711 29.63,-84.782 0,-39.1597 -13.63,-70.4878 -40.87,-93.9878 C 1374.63,10.5508 1344.16,0 1307.38,0 c -36.77,0 -66.9,10.3789 -90.4,31.1602 -19.76,17.3593 -31.67,39.1484 -35.75,65.3789"
         style="fill:#50c3ee;fill-opacity:1;fill-rule:nonzero;stroke:none"
         id="path34" /><path
         d="m 1611.29,45.9688 c 24.51,0 42.21,12.2617 53.11,36.7812 9.88,22.801 14.82,57.371 14.82,103.68 0,52.769 -6.48,90.218 -19.41,112.359 -11.24,18.731 -27.42,28.102 -48.52,28.102 -24.52,0 -42.23,-12.262 -53.13,-36.782 -10.21,-22.808 -15.32,-57.379 -15.32,-103.679 0,-52.782 6.46,-90.2386 19.41,-112.3597 11.24,-18.7383 27.58,-28.1015 49.04,-28.1015 z M 1611.29,0 c -43.25,0 -76.28,17.1914 -99.09,51.5898 -21.45,32 -32.18,76.9492 -32.18,134.8402 0,67.422 13.79,116.961 41.37,148.629 22.13,25.203 52.1,37.793 89.9,37.793 43.24,0 76.1,-16.52 98.57,-49.543 21.46,-32.008 32.18,-77.629 32.18,-136.879 0,-66.071 -13.79,-115.098 -41.37,-147.1019 C 1678.19,13.1094 1648.4,0 1611.29,0"
         style="fill:#50c3ee;fill-opacity:1;fill-rule:nonzero;stroke:none"
         id="path36" /><path
         d="m 1912.63,45.9688 c 24.51,0 42.21,12.2617 53.11,36.7812 9.87,22.801 14.81,57.371 14.81,103.68 0,52.769 -6.47,90.218 -19.4,112.359 -11.24,18.731 -27.42,28.102 -48.52,28.102 -24.53,0 -42.23,-12.262 -53.13,-36.782 -10.21,-22.808 -15.32,-57.379 -15.32,-103.679 0,-52.782 6.46,-90.2386 19.41,-112.3597 11.24,-18.7383 27.58,-28.1015 49.04,-28.1015 z M 1912.63,0 c -43.26,0 -76.28,17.1914 -99.1,51.5898 -21.44,32 -32.17,76.9492 -32.17,134.8402 0,67.422 13.78,116.961 41.37,148.629 22.13,25.203 52.1,37.793 89.9,37.793 43.24,0 76.1,-16.52 98.57,-49.543 21.45,-32.008 32.18,-77.629 32.18,-136.879 0,-66.071 -13.79,-115.098 -41.37,-147.1019 C 1979.53,13.1094 1949.73,0 1912.63,0"
         style="fill:#50c3ee;fill-opacity:1;fill-rule:nonzero;stroke:none"
         id="path38" /><path
         d="M 1100.94,71.5195 H 304.07 c -11.043,0 -20,8.9493 -20,20 0,11.0395 8.957,20.0005 20,20.0005 h 796.87 c 11.04,0 20,-8.961 20,-20.0005 0,-11.0507 -8.96,-20 -20,-20"
         style="fill:#f8a21a;fill-opacity:1;fill-rule:nonzero;stroke:none"
         id="path40" /><path
         d="M 1100.94,167.738 H 164.715 c -11.043,0 -20,8.953 -20,20 0,11.043 8.957,20 20,20 h 936.225 c 11.04,0 20,-8.957 20,-20 0,-11.047 -8.96,-20 -20,-20"
         style="fill:#e42224;fill-opacity:1;fill-rule:nonzero;stroke:none"
         id="path42" /><path
         d="M 1100.94,263.961 H 22.0742 c -11.0469,0 -19.99998,8.949 -19.99998,20 0,11.039 8.95308,20 19.99998,20 H 1100.94 c 11.04,0 20,-8.961 20,-20 0,-11.051 -8.96,-20 -20,-20"
         style="fill:#254172;fill-opacity:1;fill-rule:nonzero;stroke:none"
         id="path44" /><path
         d="m 3056.57,167.738 h -936.22 c -11.05,0 -20,8.953 -20,20 0,11.043 8.95,20 20,20 h 936.22 c 11.05,0 20,-8.957 20,-20 0,-11.047 -8.95,-20 -20,-20"
         style="fill:#e42224;fill-opacity:1;fill-rule:nonzero;stroke:none"
         id="path46" /><path
         d="M 3199.22,263.961 H 2120.35 c -11.05,0 -20,8.949 -20,20 0,11.039 8.95,20 20,20 h 1078.87 c 11.04,0 20,-8.961 20,-20 0,-11.051 -8.96,-20 -20,-20"
         style="fill:#254172;fill-opacity:1;fill-rule:nonzero;stroke:none"
         id="path48" /><path
         d="m 2917.21,71.5195 h -796.86 c -11.05,0 -20,8.9493 -20,20 0,11.0395 8.95,20.0005 20,20.0005 h 796.86 c 11.05,0 20,-8.961 20,-20.0005 0,-11.0507 -8.95,-20 -20,-20"
         style="fill:#f8a21a;fill-opacity:1;fill-rule:nonzero;stroke:none"
         id="path50" /></g></g></svg>
