<?xml version="1.0" encoding="UTF-8" standalone="no"?>
<!-- Created with Inkscape (http://www.inkscape.org/) -->

<svg
   version="1.1"
   id="svg2"
   xml:space="preserve"
   width="104.52"
   height="73.080002"
   viewBox="0 0 104.52 73.080002"
   sodipodi:docname="ccdp_design_color.eps"
   xmlns:inkscape="http://www.inkscape.org/namespaces/inkscape"
   xmlns:sodipodi="http://sodipodi.sourceforge.net/DTD/sodipodi-0.dtd"
   xmlns="http://www.w3.org/2000/svg"
   xmlns:svg="http://www.w3.org/2000/svg"><defs
     id="defs6" /><sodipodi:namedview
     id="namedview4"
     pagecolor="#ffffff"
     bordercolor="#666666"
     borderopacity="1.0"
     inkscape:pageshadow="2"
     inkscape:pageopacity="0.0"
     inkscape:pagecheckerboard="0" /><g
     id="g8"
     inkscape:groupmode="layer"
     inkscape:label="ink_ext_XXXXXX"
     transform="matrix(1.3333333,0,0,-1.3333333,0,73.08)"><g
       id="g10"
       transform="scale(0.1)"><path
         d="M 601.168,196.289 H 181.734 v 8.723 h 419.434 v -8.723"
         style="fill:#918f90;fill-opacity:1;fill-rule:nonzero;stroke:none"
         id="path12" /><path
         d="M 647.457,389.707 H 135.445 v 8.731 h 512.012 v -8.731"
         style="fill:#918f90;fill-opacity:1;fill-rule:nonzero;stroke:none"
         id="path14" /><path
         d="M 110.512,122.977 C 61.7227,183.801 27.1055,263.254 14.1367,349.246 10.7461,343.801 -15.0352,307.551 12.7383,239.656 83.7539,66.0469 218.277,11.6406 275.629,0 209.867,26.9922 154.43,68.2148 110.512,122.977"
         style="fill:#c4122e;fill-opacity:1;fill-rule:nonzero;stroke:none"
         id="path16" /><path
         d="M 97.7383,229.734 C 66.3711,304.227 54.7422,385.809 63.1094,472.371 58.043,468.094 24.7617,436.711 35.25,365.535 62.3398,181.727 173.012,88.0977 224.508,58.5625 168.324,105.828 125.738,163.289 97.7383,229.734"
         style="fill:#15495d;fill-opacity:1;fill-rule:nonzero;stroke:none"
         id="path18" /><path
         d="M 131.703,530.887 C 124.184,526.336 91.168,504.637 85.1602,447.566 75.8047,312.82 125.973,226.238 159,184.93 c -28.789,48.144 -46.621,99.687 -53.105,153.633 -7.7856,64.707 0.925,129.355 25.808,192.324"
         style="fill:#918f90;fill-opacity:1;fill-rule:nonzero;stroke:none"
         id="path20" /><path
         d="m 673.336,122.977 c 48.789,60.824 83.406,140.277 96.375,226.269 3.391,-5.445 29.172,-41.695 1.398,-109.59 C 700.094,66.0469 565.57,11.6406 508.219,0 573.98,26.9922 629.418,68.2148 673.336,122.977"
         style="fill:#c4122e;fill-opacity:1;fill-rule:nonzero;stroke:none"
         id="path22" /><path
         d="m 686.109,229.734 c 31.368,74.493 42.996,156.075 34.629,242.637 5.067,-4.277 38.348,-35.66 27.86,-106.836 C 721.508,181.727 610.836,88.0977 559.34,58.5625 615.523,105.828 658.109,163.289 686.109,229.734"
         style="fill:#15495d;fill-opacity:1;fill-rule:nonzero;stroke:none"
         id="path24" /><path
         d="m 652.145,530.887 c 7.519,-4.551 40.535,-26.25 46.543,-83.321 9.355,-134.746 -40.813,-221.328 -73.84,-262.636 28.789,48.144 46.621,99.687 53.105,153.633 7.785,64.707 -0.926,129.355 -25.808,192.324"
         style="fill:#918f90;fill-opacity:1;fill-rule:nonzero;stroke:none"
         id="path26" /><path
         d="m 267.145,162.93 v -39.278 h 10.945 c 12.031,0 17.902,8.184 17.902,19.637 0,11.594 -6.015,19.641 -18.195,19.641 z m 36.386,-19.641 c 0,-17.027 -10.441,-25.867 -25.441,-25.867 h -18.192 v 51.738 h 17.899 c 15.508,0 25.734,-9.055 25.734,-25.871"
         style="fill:#231f20;fill-opacity:1;fill-rule:nonzero;stroke:none"
         id="path28" /><path
         d="m 312.242,117.422 v 51.738 h 32.832 v -6.23 h -25.586 v -15.723 h 23.7 v -6.23 h -23.7 v -17.325 h 26.16 v -6.23 h -33.406"
         style="fill:#231f20;fill-opacity:1;fill-rule:nonzero;stroke:none"
         id="path30" /><path
         d="m 393.141,153.809 c -2.317,0 -6.301,0 -7.61,0 0,6.296 -4.199,10.789 -12.39,10.722 -7.102,0 -11.457,-3.191 -11.457,-7.179 0,-5.797 6.164,-7.754 13.476,-9.786 7.258,-2.031 20.293,-4.714 20.293,-16.304 0,-8.989 -7.527,-15.071 -21.875,-15.071 -11.894,0 -21.387,6.153 -21.387,18.399 0.586,0 6.887,0 7.676,0 0,-6.301 3.996,-12.61 14.863,-12.61 8.633,0 13.047,3.333 13.047,8.047 0,5.95 -6.523,8.489 -14.863,10.801 -8.262,2.246 -18.906,4.934 -18.906,16.301 0,7.031 7.031,13.203 19.199,13.203 12.969,0 19.934,-6.965 19.934,-16.523"
         style="fill:#231f20;fill-opacity:1;fill-rule:nonzero;stroke:none"
         id="path32" /><path
         d="m 412.855,117.422 h -7.246 v 51.738 h 7.246 v -51.738"
         style="fill:#231f20;fill-opacity:1;fill-rule:nonzero;stroke:none"
         id="path34" /><path
         d="m 463.598,124.012 c -1.309,-1.805 -6.016,-7.821 -16.602,-7.821 -15.215,0 -25.437,10.352 -25.437,27.098 0,16.164 9.636,27.109 25.437,27.109 16.524,0 22.617,-10.359 23.047,-18.269 h -7.832 c -0.137,3.769 -3.398,12.469 -15.215,12.469 -11.953,0 -17.91,-9.715 -17.91,-21.309 0,-12.312 6.523,-21.309 17.91,-21.309 13.41,0 16.738,11.165 16.602,16.887 h -16.746 v 5.801 h 23.992 v -27.246 h -6.668 c -0.227,5.066 -0.363,6.59 -0.363,6.59 h -0.215"
         style="fill:#231f20;fill-opacity:1;fill-rule:nonzero;stroke:none"
         id="path36" /><path
         d="m 491.664,169.16 25.43,-42.617 h 0.215 v 42.617 h 6.457 v -51.738 h -8.985 l -26.457,43.769 h -0.144 v -43.769 h -6.457 v 51.738 h 9.941"
         style="fill:#231f20;fill-opacity:1;fill-rule:nonzero;stroke:none"
         id="path38" /><path
         d="m 267.094,281.633 c 0,-12.77 -9.746,-48.047 -51.074,-48.047 -36.114,0 -58.965,24.019 -58.965,62.828 0,36.629 23.359,62.832 58.965,62.832 41.164,0 50.566,-31.078 50.742,-42.332 h -17.305 c -0.672,11.254 -9.91,28.891 -33.437,28.891 -27.715,0 -41.485,-22.508 -41.485,-49.391 0,-28.559 15.117,-49.383 41.485,-49.383 25.371,0 33.261,22 33.945,34.602 h 17.129"
         style="fill:#15495d;fill-opacity:1;fill-rule:nonzero;stroke:none"
         id="path40" /><path
         d="m 390.57,281.633 c 0,-12.77 -9.746,-48.047 -51.074,-48.047 -36.113,0 -58.965,24.019 -58.965,62.828 0,36.629 23.36,62.832 58.965,62.832 41.164,0 50.567,-31.078 50.742,-42.332 h -17.304 c -0.672,11.254 -9.911,28.891 -33.438,28.891 -27.715,0 -41.484,-22.508 -41.484,-49.391 0,-28.559 15.117,-49.383 41.484,-49.383 25.371,0 33.262,22 33.945,34.602 h 17.129"
         style="fill:#15495d;fill-opacity:1;fill-rule:nonzero;stroke:none"
         id="path42" /><path
         d="m 427.523,341.941 v -91.054 h 25.372 c 27.89,0 41.503,18.984 41.503,45.527 0,26.883 -13.945,45.527 -42.168,45.527 z m 84.336,-45.527 c 0,-39.48 -24.179,-59.969 -58.964,-59.969 h -42.168 v 119.946 h 41.503 c 35.95,0 59.629,-21 59.629,-59.977"
         style="fill:#15495d;fill-opacity:1;fill-rule:nonzero;stroke:none"
         id="path44" /><path
         d="m 548.824,341.941 v -40.148 c 12.606,0 30.242,0 30.242,0 16.965,0 24.864,9.238 24.864,19.988 0,10.754 -7.735,20.16 -24.864,20.16 0,0 -21.336,0 -30.242,0 z m 0,-105.496 h -16.808 v 119.946 c 25.547,0 46.543,0 46.543,0 29.902,0 42.843,-15.121 42.843,-34.438 0,-19.488 -12.941,-34.609 -42.843,-34.609 0,0 -20.996,0 -29.735,0 v -50.899"
         style="fill:#15495d;fill-opacity:1;fill-rule:nonzero;stroke:none"
         id="path46" /><path
         d="m 315.59,514.59 c 0,-5.508 -4.207,-20.727 -22.031,-20.727 -15.586,0 -25.45,10.36 -25.45,27.102 0,15.801 10.079,27.109 25.45,27.109 17.754,0 21.816,-13.406 21.886,-18.265 h -7.472 c -0.293,4.859 -4.278,12.464 -14.414,12.464 -11.961,0 -17.911,-9.71 -17.911,-21.308 0,-12.317 6.524,-21.309 17.911,-21.309 10.937,0 14.347,9.5 14.629,14.934 h 7.402"
         style="fill:#231f20;fill-opacity:1;fill-rule:nonzero;stroke:none"
         id="path48" /><path
         d="m 338.07,495.094 h -7.246 v 51.746 h 7.246 v -51.746"
         style="fill:#231f20;fill-opacity:1;fill-rule:nonzero;stroke:none"
         id="path50" /><path
         d="m 394.242,531.48 c -2.312,0 -6.297,0 -7.597,0 0,6.301 -4.207,10.793 -12.403,10.723 -7.097,0 -11.445,-3.191 -11.445,-7.176 0,-5.8 6.152,-7.754 13.476,-9.785 7.247,-2.031 20.293,-4.711 20.293,-16.308 0,-8.985 -7.539,-15.071 -21.882,-15.071 -11.887,0 -21.379,6.157 -21.379,18.407 0.578,0 6.875,0 7.675,0 0,-6.305 3.985,-12.614 14.864,-12.614 8.625,0 13.047,3.336 13.047,8.047 0,5.945 -6.524,8.485 -14.864,10.801 -8.261,2.246 -18.914,4.93 -18.914,16.305 0,7.031 7.032,13.195 19.207,13.195 12.969,0 19.922,-6.961 19.922,-16.524"
         style="fill:#231f20;fill-opacity:1;fill-rule:nonzero;stroke:none"
         id="path52" /><path
         d="m 455.648,514.59 c 0,-5.508 -4.199,-20.727 -22.031,-20.727 -15.586,0 -25.437,10.36 -25.437,27.102 0,15.801 10.066,27.109 25.437,27.109 17.754,0 21.817,-13.406 21.895,-18.265 h -7.469 c -0.293,4.859 -4.277,12.464 -14.426,12.464 -11.953,0 -17.898,-9.71 -17.898,-21.308 0,-12.317 6.511,-21.309 17.898,-21.309 10.938,0 14.356,9.5 14.641,14.934 h 7.39"
         style="fill:#231f20;fill-opacity:1;fill-rule:nonzero;stroke:none"
         id="path54" /><path
         d="m 493.434,499.656 c 12.031,0 17.898,9.86 17.898,21.309 0,11.598 -5.937,21.308 -17.898,21.308 -11.965,0 -17.903,-9.71 -17.903,-21.308 0,-12.317 6.524,-21.309 17.903,-21.309 z m -25.442,21.309 c 0,16.164 9.641,27.109 25.442,27.109 15.144,0 25.437,-10.219 25.437,-27.109 0,-17.031 -10.43,-27.102 -25.437,-27.102 -15.227,0 -25.442,10.36 -25.442,27.102"
         style="fill:#231f20;fill-opacity:1;fill-rule:nonzero;stroke:none"
         id="path56" /><path
         d="m 237.758,444.59 c 0,-5.508 -4.199,-20.727 -22.031,-20.727 -15.586,0 -25.438,10.36 -25.438,27.102 0,15.801 10.066,27.109 25.438,27.109 17.753,0 21.816,-13.406 21.894,-18.265 h -7.469 c -0.293,4.859 -4.277,12.464 -14.425,12.464 -11.954,0 -17.899,-9.71 -17.899,-21.308 0,-12.317 6.512,-21.309 17.899,-21.309 10.937,0 14.355,9.5 14.64,14.934 h 7.391"
         style="fill:#231f20;fill-opacity:1;fill-rule:nonzero;stroke:none"
         id="path58" /><path
         d="m 252.992,425.094 v 51.746 h 32.832 v -6.231 h -25.586 v -15.726 h 23.711 v -6.235 h -23.711 v -17.32 h 26.172 v -6.234 h -33.418"
         style="fill:#231f20;fill-opacity:1;fill-rule:nonzero;stroke:none"
         id="path60" /><path
         d="m 308.891,470.609 v -17.324 c 6.386,0 13.918,0 13.918,0 7.39,0 10.8,3.988 10.8,8.629 0,4.637 -3.332,8.695 -10.8,8.695 0,0 -9.211,0 -13.918,0 z m 13.984,-23.554 h -13.984 v -21.961 h -7.246 v 51.746 c 11.886,0 21.015,0 21.015,0 12.91,0 18.488,-6.52 18.488,-14.86 0,-10.722 -8.332,-13.039 -10.734,-13.546 0,0 0,-0.149 12.539,-23.34 h -8.555 l -11.523,21.961"
         style="fill:#231f20;fill-opacity:1;fill-rule:nonzero;stroke:none"
         id="path62" /><path
         d="m 393.988,476.84 v -6.231 h -17.539 v -45.515 h -7.246 v 45.515 h -17.539 v 6.231 h 42.324"
         style="fill:#231f20;fill-opacity:1;fill-rule:nonzero;stroke:none"
         id="path64" /><path
         d="m 414.301,425.094 h -7.246 v 51.746 h 7.246 v -51.746"
         style="fill:#231f20;fill-opacity:1;fill-rule:nonzero;stroke:none"
         id="path66" /><path
         d="m 438.949,470.609 v -15.726 h 22.696 v -6.235 h -22.696 v -23.554 h -7.246 v 51.746 h 32.832 v -6.231 h -25.586"
         style="fill:#231f20;fill-opacity:1;fill-rule:nonzero;stroke:none"
         id="path68" /><path
         d="m 487.016,425.094 h -7.246 v 51.746 h 7.246 v -51.746"
         style="fill:#231f20;fill-opacity:1;fill-rule:nonzero;stroke:none"
         id="path70" /><path
         d="m 504.418,425.094 v 51.746 h 32.832 v -6.231 h -25.586 v -15.726 h 23.691 v -6.235 h -23.691 v -17.32 h 26.164 v -6.234 h -33.41"
         style="fill:#231f20;fill-opacity:1;fill-rule:nonzero;stroke:none"
         id="path72" /><path
         d="m 560.309,470.609 v -39.281 h 10.945 c 12.031,0 17.902,8.188 17.902,19.637 0,11.598 -6.015,19.644 -18.195,19.644 z m 36.386,-19.644 c 0,-17.031 -10.441,-25.871 -25.441,-25.871 h -18.191 v 51.746 h 17.898 c 15.508,0 25.734,-9.059 25.734,-25.875"
         style="fill:#231f20;fill-opacity:1;fill-rule:nonzero;stroke:none"
         id="path74" /></g></g></svg>
